<?xml version="1.0" encoding="UTF-8" standalone="no"?><!-- Generator: Gravit.io --><svg xmlns="http://www.w3.org/2000/svg" xmlns:xlink="http://www.w3.org/1999/xlink" style="isolation:isolate" viewBox="0 0 1800 1100" width="1800pt" height="1100pt"><defs><clipPath id="_clipPath_pVUznieSLV8yNbJVklAeuAXdktjs2wYq"><rect width="1800" height="1100"/></clipPath></defs><g clip-path="url(#_clipPath_pVUznieSLV8yNbJVklAeuAXdktjs2wYq)"><rect width="1800" height="1100" style="fill:rgb(254,199,215)" fill-opacity="0"/><rect x="631.785" y="51.694" width="488.617" height="816.906" transform="matrix(1,0,0,1,0,0)" fill="rgb(249,248,252)"/><g><rect x="119.949" y="326.194" width="33.357" height="43.365" transform="matrix(1,0,0,1,0,0)" fill="rgb(63,61,86)"/><rect x="858.982" y="933.911" width="33.357" height="43.365" transform="matrix(1,0,0,1,0,0)" fill="rgb(63,61,86)"/><rect x="1340.941" y="106.475" width="33.357" height="43.365" transform="matrix(0,1,-1,0,1485.777,-1229.463)" fill="rgb(63,61,86)"/><rect x="59.816" y="1050.061" width="1471.209" height="3.421" transform="matrix(1,0,0,1,0,0)" fill="rgb(63,61,86)"/><path d=" M 1060.852 467.018 L 691.335 467.018 L 691.335 128.04 L 1060.852 128.04 L 1060.852 467.018 Z  M 694.389 463.964 L 1057.798 463.964 L 1057.798 131.094 L 694.389 131.094 L 694.389 463.964 Z " fill="rgb(63,61,86)"/><path d=" M 693.942 377.141 L 691.783 374.982 L 806.948 259.817 L 874.567 327.435 L 1057.482 144.52 L 1059.641 146.679 L 874.567 331.753 L 806.948 264.135 L 693.942 377.141 L 693.942 377.141 Z " fill="rgb(63,61,86)"/><circle vector-effect="non-scaling-stroke" cx="807.3819264256156" cy="262.40951353967" r="22.903907780270515" fill="rgb(103,92,226)"/><circle vector-effect="non-scaling-stroke" cx="876.0936497664275" cy="325.0135281390764" r="22.903907780270515" fill="rgb(103,92,226)"/><circle vector-effect="non-scaling-stroke" cx="1059.3249120085916" cy="144.83612026761438" r="22.90390778027063" fill="rgb(103,92,226)"/><rect x="737.143" y="561.687" width="277.901" height="27.485" transform="matrix(1,0,0,1,0,0)" fill="rgb(63,61,86)"/><path d=" M 940.225 787.672 L 811.963 787.672 L 811.963 659.411 L 898.998 659.411 L 898.998 662.464 L 815.017 662.464 L 815.017 784.619 L 937.171 784.619 L 937.171 723.542 L 940.225 723.542 L 940.225 787.672 L 940.225 787.672 Z " fill="rgb(63,61,86)"/><path d=" M 875.432 754.217 L 848.304 718.045 L 858.076 710.715 L 876.755 735.62 L 962.628 649.748 L 971.264 658.384 L 875.432 754.217 L 875.432 754.217 Z " fill="rgb(103,92,226)"/></g><g><g><g><g><path d=" M 1510.804 345.13 C 1522.078 331.896 1529.709 315.678 1528.434 297.505 C 1524.76 245.144 1451.871 256.663 1437.693 283.09 C 1423.515 309.517 1425.199 376.553 1443.524 381.276 C 1450.831 383.16 1466.399 378.546 1482.243 368.996 L 1472.298 439.353 L 1531.02 439.353 L 1510.804 345.13 Z " fill-rule="evenodd" fill="rgb(178,139,103)"/></g><path d=" M 1479.307 303.288 C 1477.059 334.599 1471.113 350.255 1461.469 350.255 C 1447.002 350.255 1434.728 341.07 1428.38 341.07 C 1423.753 341.07 1424.786 346.861 1427.853 351.155 C 1430.384 354.697 1442.707 358.111 1442.707 363.602 C 1442.707 369.094 1432.971 364.846 1432.971 368.102 C 1432.971 373.49 1431.26 383.619 1440.61 383.619 C 1450.073 383.619 1477.204 380.171 1481.854 366.126 C 1484.855 357.062 1486.795 338.28 1487.675 309.78 C 1488.249 309.711 1488.833 309.676 1489.425 309.676 C 1497.533 309.676 1504.106 316.249 1504.106 324.357 C 1504.106 328.473 1502.412 332.193 1499.683 334.859 C 1503.08 339.653 1506.887 344.662 1511.249 349.83 C 1527.637 339.998 1539.798 311.215 1523.776 283.566 C 1519.348 270.02 1509.322 262.785 1497.481 259.426 C 1487.89 255.414 1477.933 254.961 1469.528 257.367 C 1453.052 258.78 1438.34 263.804 1434.17 266.787 C 1434.17 282.386 1437.193 287.014 1463.008 286.606 C 1469.352 289.956 1474.228 295.725 1479.307 303.288 Z " fill-rule="evenodd" fill="rgb(25,24,71)"/></g><g><path d=" M 1240.143 686.707 C 1222.576 662.882 1178.664 678.654 1178.69 698.378 C 1178.76 750.164 1226.018 996.014 1228.486 1011.536 C 1230.953 1027.057 1257.385 1032.135 1258.925 1012.741 C 1261.374 981.881 1265.924 874.902 1261.371 825.133 C 1260.041 810.596 1258.639 796.544 1257.227 783.38 C 1282.064 828 1319.832 891.066 1370.531 972.579 L 1398.709 959.705 C 1376.582 886.802 1358.438 835.334 1344.277 805.302 C 1320.03 753.88 1297.295 709.843 1287.726 694.332 C 1275.087 673.842 1254.586 676.562 1240.143 686.707 Z " fill-rule="evenodd" fill="rgb(178,139,103)"/><path d=" M 1396.695 919.219 L 1299.981 690.112 C 1276.812 652.842 1211.853 697.696 1219.754 719.312 C 1237.692 768.388 1328.92 927.266 1334.265 941.887 L 1396.695 919.219 Z " fill-rule="evenodd" fill="rgb(198,184,28)"/><path d=" M 1176.244 716.266 C 1176.244 781.205 1204.708 933.852 1204.728 948.152 L 1273.682 945.827 C 1261.629 813.109 1256.546 746.301 1258.433 745.401 C 1262.679 743.378 1432.509 768.906 1483.444 770.834 C 1556.892 773.614 1587.276 728.554 1589.741 643.045 L 1447.469 643.045 C 1325.815 657.567 1245.858 667.667 1207.6 673.345 C 1183.031 676.992 1176.244 698.377 1176.244 716.266 Z " fill-rule="evenodd" fill="rgb(249,229,0)"/><g><path d=" M 1329.019 906.794 L 1313.229 910.73 C 1292.251 915.961 1279.484 937.207 1284.715 958.186 L 1289.45 977.178 C 1294.681 998.157 1315.927 1010.923 1336.906 1005.692 L 1352.695 1001.756 C 1373.674 996.525 1386.44 975.279 1381.209 954.3 L 1376.474 935.308 C 1371.244 914.329 1349.997 901.563 1329.019 906.794 Z  M 1345.376 925.491 C 1350.62 924.184 1355.932 927.375 1357.239 932.62 L 1365.488 965.703 C 1366.796 970.948 1363.604 976.26 1358.36 977.567 L 1320.549 986.995 C 1315.304 988.302 1309.992 985.111 1308.685 979.866 L 1300.436 946.782 C 1299.129 941.538 1302.32 936.226 1307.565 934.919 L 1345.376 925.491 Z " fill-rule="evenodd" fill="rgb(197,207,214)"/></g><g><path d=" M 1262.667 976.171 C 1265.404 983.478 1266.773 988.945 1266.773 992.573 C 1266.773 996.985 1266.038 1003.424 1264.568 1011.888 C 1259.449 1011.888 1213.449 1011.888 1126.567 1011.888 C 1122.981 1000.033 1125.051 993.632 1132.778 992.687 C 1140.504 991.742 1146.923 990.888 1152.033 990.126 L 1216.174 961.532 C 1217.408 960.982 1218.855 961.536 1219.405 962.77 C 1219.415 962.791 1219.424 962.813 1219.433 962.834 L 1223.555 972.835 C 1230.708 976.173 1236.52 977.841 1240.992 977.841 C 1244.625 977.841 1249.643 976.374 1256.045 973.439 L 1256.045 973.439 C 1258.502 972.313 1261.406 973.391 1262.533 975.848 C 1262.581 975.954 1262.626 976.062 1262.667 976.171 Z " fill-rule="evenodd" fill="rgb(228,228,228)"/></g><path d="M 1255.762 1011.888 L 1143.213 1011.888 C 1138.486 1011.888 1134.649 1015.725 1134.649 1020.452 L 1134.649 1020.452 C 1134.649 1025.178 1138.486 1029.015 1143.213 1029.015 L 1255.762 1029.015 C 1260.489 1029.015 1264.326 1025.178 1264.326 1020.452 L 1264.326 1020.452 C 1264.326 1015.725 1260.489 1011.888 1255.762 1011.888 Z" style="stroke:none;fill:#2F3676;stroke-miterlimit:10;"/><path d=" M 1597.081 657.112 L 1335.281 657.112 C 1321.768 657.112 1310.814 668.067 1310.814 681.58 L 1310.814 801.469 L 1611.762 801.469 C 1617.167 801.469 1621.549 797.088 1621.549 791.682 L 1621.549 681.58 C 1621.549 668.067 1610.594 657.112 1597.081 657.112 Z " fill-rule="evenodd" fill="rgb(47,54,118)"/><path d=" M 1335.281 657.112 L 1329.914 657.112 C 1317.931 657.112 1307.711 665.791 1305.77 677.615 L 1252.092 1004.548 L 1278.237 1004.548" fill-rule="evenodd" fill="rgb(47,54,118)"/><circle vector-effect="non-scaling-stroke" cx="1264.325874967194" cy="1009.4415632556475" r="44.04116547833837" fill="rgb(25,24,71)"/><g><path d=" M 1589.741 1048.589 C 1692.439 1048.589 1775.693 965.336 1775.693 862.638 C 1775.693 759.939 1692.439 676.686 1589.741 676.686 C 1487.043 676.686 1403.79 759.939 1403.79 862.638 C 1403.79 965.336 1487.043 1048.589 1589.741 1048.589 Z  M 1589.741 1014.335 C 1505.961 1014.335 1438.044 946.418 1438.044 862.638 C 1438.044 778.858 1505.961 710.94 1589.741 710.94 C 1673.521 710.94 1741.439 778.858 1741.439 862.638 C 1741.439 946.418 1673.521 1014.335 1589.741 1014.335 Z " fill-rule="evenodd" fill="rgb(25,24,71)"/><rect x="1579.954" y="701.153" width="19.574" height="322.969" transform="matrix(1,0,0,1,0,0)" fill="rgb(25,24,71)"/><path d="M 1479.015 744.991 L 1472.094 751.911 C 1470.185 753.821 1470.185 756.922 1472.094 758.832 L 1693.547 980.285 C 1695.457 982.194 1698.558 982.194 1700.468 980.285 L 1707.388 973.364 C 1709.298 971.454 1709.298 968.353 1707.388 966.444 L 1485.935 744.991 C 1484.025 743.081 1480.924 743.081 1479.015 744.991 Z" style="stroke:none;fill:#191847;stroke-miterlimit:10;"/><path d="M 1428.257 857.744 L 1428.257 867.531 C 1428.257 870.232 1430.45 872.425 1433.15 872.425 L 1746.332 872.425 C 1749.033 872.425 1751.225 870.232 1751.225 867.531 L 1751.225 857.744 C 1751.225 855.043 1749.033 852.851 1746.332 852.851 L 1433.15 852.851 C 1430.45 852.851 1428.257 855.043 1428.257 857.744 Z" style="stroke:none;fill:#191847;stroke-miterlimit:10;"/><path d="M 1472.094 973.364 L 1479.015 980.285 C 1480.924 982.194 1484.025 982.194 1485.935 980.285 L 1707.388 758.832 C 1709.298 756.922 1709.298 753.821 1707.388 751.911 L 1700.468 744.991 C 1698.558 743.081 1695.457 743.081 1693.547 744.991 L 1472.094 966.444 C 1470.185 968.353 1470.185 971.454 1472.094 973.364 Z" style="stroke:none;fill:#191847;stroke-miterlimit:10;"/></g></g><g><path d=" M 1343.157 611.142 L 1265.11 668.453 C 1243.942 674.165 1226.257 681.271 1212.055 689.773 C 1208.7 692.829 1204.646 699.02 1218.559 697.95 C 1232.472 696.88 1247.155 696.381 1249.075 701.126 C 1250.994 705.872 1242.575 711.547 1246.455 717.95 C 1249.043 722.219 1261.265 711.515 1283.123 685.839 L 1360.41 653.791 L 1343.157 611.142 Z  M 1642.816 613.12 L 1591.686 613.321 C 1623.256 715.236 1640.3 769.312 1642.816 775.548 C 1648.477 789.579 1636.497 810.947 1631.373 822.431 C 1648.06 829.898 1646.282 802.245 1667.332 812.038 C 1686.546 820.977 1701.161 837.173 1723.36 823.476 C 1726.089 821.792 1729.079 815.452 1721.853 810.497 C 1703.851 798.153 1677.908 776.549 1674.403 769.437 C 1669.623 759.74 1659.094 707.634 1642.816 613.12 Z " fill-rule="evenodd" fill="rgb(178,139,103)"/><path d=" M 1497.512 398.571 L 1476.354 394.942 C 1397.855 462.754 1365.613 593.03 1269.392 662.042 L 1292.551 690.749 C 1459.477 670.081 1500.851 511.176 1497.512 398.571 Z " fill-rule="evenodd" fill="rgb(229,0,121)"/><path d=" M 1589.741 664.452 C 1504.909 664.452 1442.508 664.452 1402.538 664.452 C 1393.984 664.452 1395.596 652.1 1396.832 645.868 C 1411.104 573.933 1466.814 496.39 1466.814 393.993 L 1520.812 385.525 C 1565.476 457.357 1580.921 545.797 1589.741 664.452 Z " fill-rule="evenodd" fill="rgb(221,227,233)"/><path d=" M 1588.237 456.133 C 1596.079 453.878 1602.29 448.621 1606.868 440.359 C 1626.605 404.747 1619.477 385.139 1598.385 378.694 C 1577.293 372.249 1558.483 385.525 1524.878 385.525 C 1523.05 385.525 1521.376 385.64 1519.856 385.869 L 1502.952 386.833 C 1454.452 551.206 1441.076 660.873 1462.824 715.834 L 1610.167 715.834 C 1618.897 736.19 1627.251 753.317 1635.228 767.215 L 1675.377 767.215 C 1679.155 645.043 1650.109 541.349 1588.237 456.133 Z " fill-rule="evenodd" fill="rgb(229,0,121)"/><path d=" M 1578.082 631.416 C 1573.448 670.188 1565.916 698.327 1555.487 715.834 L 1610.167 715.834 C 1599.984 692.089 1589.289 663.949 1578.082 631.416 L 1578.082 631.416 Z " fill-rule="evenodd" fill="rgb(0,0,0)" fill-opacity="0.1"/></g></g></g><g><g><g><g><path d=" M 348.544 196.344 C 336.085 184.898 326.791 170.138 325.867 152.434 C 323.206 101.424 394.974 103.905 411.803 127.75 C 428.632 151.594 434.955 216.542 417.816 223.278 C 410.981 225.964 395.397 223.353 378.961 216.008 L 396.911 282.786 L 340.192 289.75 L 348.544 196.344 Z " fill-rule="evenodd" fill="rgb(145,91,60)"/></g><path d=" M 375.863 102.299 C 368.237 101.991 348.006 103.62 344.294 104.076 C 341.922 104.367 339.418 105.225 337.746 103.219 C 336.376 101.577 336.427 98.509 335.83 96.481 C 335.136 94.126 334.278 91.822 333.415 89.525 C 330.957 82.988 327.706 76.882 323.518 71.288 C 315.661 60.794 305.095 53.115 292.495 49.439 C 278.58 45.38 263.465 45.915 249.391 48.813 C 234.329 51.914 221.174 58.627 207.391 65.117 C 194.256 71.301 180.137 74.834 165.551 74.393 C 150.855 73.948 138.996 67.469 125.919 61.543 C 112.531 55.476 97.688 52.255 83.104 55.205 C 69.491 57.959 57.52 65.189 47.086 74.166 C 37.323 82.564 29.597 92.175 26.119 104.794 C 22.376 118.368 24.122 132.549 34.287 142.891 C 49.021 157.882 73.127 159.267 92.692 156.433 C 104.009 154.794 114.899 151.354 125.15 146.271 C 138.82 139.491 150.121 129.458 162.638 120.906 C 168.513 116.893 174.67 113.434 181.23 110.681 C 187.596 108.008 193.987 106.357 200.447 109.607 C 207.282 113.047 213.45 116.492 221.001 118.243 C 228.244 119.923 235.761 120.437 243.139 119.473 C 257.496 117.597 271.112 111.381 284.701 106.668 C 295.782 102.825 307.66 98.893 319.552 99.819 C 324.514 100.205 331.835 101.362 334.202 106.179 C 305.424 115.128 298.333 152.948 309.912 178.65 C 316.161 192.523 345.151 206.078 354.687 197.21 C 360.728 191.592 355.928 185.781 352.812 181.938 C 346.844 174.578 343.879 164.547 352.43 157.863 C 359.806 152.098 369.575 162.438 369.732 162.406 C 371.899 161.965 389.498 148.947 400.612 131.739 C 413.56 130.923 414.47 122.207 410.549 115.652 C 406.629 109.097 386.399 102.726 375.863 102.299 Z " fill-rule="evenodd" fill="rgb(25,24,71)"/></g><g><path d=" M 359.611 484.421 L 446.83 784.969 L 487.853 1010.625 L 529.028 1010.625 L 487.926 484.421 L 359.611 484.421 Z " fill-rule="evenodd" fill="rgb(120,73,49)"/><path d=" M 320.414 484.421 C 326.5 640.554 324.1 725.713 322.738 739.898 C 321.376 754.084 313.643 849.088 260.951 1015.387 L 303.776 1015.387 C 373.559 855.851 397.919 760.847 405.923 739.898 C 413.926 718.95 437.564 633.79 472.075 484.421 L 320.414 484.421 Z " fill-rule="evenodd" fill="rgb(145,91,60)"/><path d=" M 357.739 484.421 C 380.426 587.84 419.664 752.924 475.455 979.671 L 535.678 979.671 C 540.126 746.937 521.204 593.758 488.435 484.421 L 357.739 484.421 Z " fill-rule="evenodd" fill="rgb(215,198,21)"/><path d=" M 320.11 484.421 C 326.07 640.554 310.624 794.374 262.777 982.102 L 327.031 982.102 C 396.942 824.948 447.049 671.887 481.294 484.421 L 320.11 484.421 Z " fill-rule="evenodd" fill="rgb(249,229,0)"/><g><path d=" M 254.847 1046.34 L 257.21 1008.244 C 271.045 1012.29 288.373 1010.703 309.195 1003.481 C 331.584 1019.34 359.768 1030.169 393.748 1035.968 L 393.748 1035.968 C 396.341 1036.411 398.084 1038.871 397.642 1041.464 C 397.613 1041.632 397.575 1041.798 397.529 1041.962 L 394.262 1053.483 L 309.195 1053.483 L 259.573 1053.483 L 254.847 1046.34 Z " fill-rule="evenodd" fill="rgb(25,24,71)"/></g><g><path d=" M 478.662 1046.34 L 481.025 1008.244 C 494.86 1012.29 512.188 1010.703 533.01 1003.481 C 555.399 1019.34 583.583 1030.169 617.564 1035.968 L 617.564 1035.968 C 620.156 1036.411 621.899 1038.871 621.457 1041.464 C 621.428 1041.632 621.39 1041.798 621.344 1041.962 L 618.077 1053.483 L 533.01 1053.483 L 483.388 1053.483 L 478.662 1046.34 Z " fill-rule="evenodd" fill="rgb(25,24,71)"/></g></g><g><path d=" M 556.238 430.369 L 640.719 472.105 C 661.97 474.002 680.12 477.824 695.167 483.571 C 698.899 485.934 703.831 491.182 690.316 492.507 C 676.802 493.833 662.646 495.835 661.608 500.708 C 660.57 505.58 669.598 509.596 666.961 516.388 C 665.203 520.916 651.681 512.724 626.394 491.811 L 546.91 474.157 L 556.238 430.369 Z  M 269.392 482.902 L 318.427 474.454 C 305.393 577.461 298.197 632.164 296.84 638.566 C 293.785 652.969 308.878 671.423 315.728 681.563 C 300.998 691.539 298.029 664.737 279.511 677.679 C 262.608 689.493 251.338 707.484 227.749 698.109 C 224.849 696.956 220.912 691.385 226.999 685.416 C 242.166 670.544 263.378 645.455 265.535 638.048 C 268.478 627.946 269.763 576.231 269.392 482.902 Z " fill-rule="evenodd" fill="rgb(145,91,60)"/><path d=" M 372.39 252.734 L 392.053 245.681 C 478.742 297.404 531.656 416.806 635.532 466.684 L 618.188 498.109 C 454.722 506.51 388.218 361.214 372.39 252.734 Z " fill-rule="evenodd" fill="rgb(229,0,121)"/><path d=" M 328.931 523.128 C 410.231 508.793 470.033 498.248 508.338 491.494 C 516.536 490.048 512.904 478.483 510.666 472.719 C 484.833 406.191 418.339 341.292 401.035 243.159 L 347.855 244.169 C 317.19 320.557 317.333 407.924 328.931 523.128 Z " fill-rule="evenodd" fill="rgb(221,227,233)"/><path d=" M 295.17 323.23 C 287.273 322.394 280.433 318.405 274.649 311.261 C 249.716 280.467 253.234 260.472 272.358 250.731 C 291.483 240.99 311.753 250.535 343.958 244.856 C 345.71 244.547 347.334 244.374 348.83 244.337 L 365.193 242.404 C 439.45 391.736 470.8 494.575 459.246 550.923 L 318.038 575.821 C 313.112 596.805 308 614.631 302.703 629.298 L 264.227 636.082 C 239.96 519.636 250.275 415.352 295.17 323.23 Z " fill-rule="evenodd" fill="rgb(229,0,121)"/><path d=" M 334.522 489.497 C 345.515 525.871 357.488 551.566 370.441 566.581 L 318.038 575.821 C 323.785 551.344 329.279 522.569 334.522 489.497 L 334.522 489.497 Z " fill-rule="evenodd" fill="rgb(0,0,0)" fill-opacity="0.1"/></g></g></g></g></svg>