<?xml version="1.0" encoding="UTF-8" standalone="no"?><!-- Generator: Gravit.io --><svg xmlns="http://www.w3.org/2000/svg" xmlns:xlink="http://www.w3.org/1999/xlink" style="isolation:isolate" viewBox="0 0 1500 1100" width="1500pt" height="1100pt"><defs><clipPath id="_clipPath_Y8icSf4bT8TII35Pp6IHytApf78w09Dx"><rect width="1500" height="1100"/></clipPath></defs><g clip-path="url(#_clipPath_Y8icSf4bT8TII35Pp6IHytApf78w09Dx)"><rect width="1500" height="1100" style="fill:rgb(254,199,215)" fill-opacity="0"/><g><g><path d=" M 952.429 612.675 C 924.872 629.202 875.775 649.91 825.603 628.629 L 793.17 614.871 L 858.162 542.016 C 750.697 423.525 750.882 242.767 858.59 124.496 C 966.298 6.225 1146.25 -10.821 1274.249 85.123 C 1402.249 181.067 1436.37 358.575 1353.064 495.137 C 1269.758 631.699 1096.31 682.585 952.429 612.675 L 952.429 612.675 Z  M 827.904 332.999 C 827.614 404.944 857.385 473.741 910.03 522.78 L 927.957 539.626 L 887.059 585.471 C 908.362 581.149 926.916 569.624 936.324 562.931 L 949.233 553.746 L 963.117 561.374 C 1001.495 582.387 1044.545 593.398 1088.299 593.394 C 1231.881 593.394 1348.694 476.582 1348.694 332.999 C 1348.694 189.417 1231.881 72.604 1088.299 72.604 C 944.717 72.604 827.904 189.417 827.904 332.999 L 827.904 332.999 Z " fill="rgb(63,61,86)"/><path d=" M 802.658 332.999 C 802.658 175.244 930.544 47.358 1088.299 47.358 C 1246.054 47.358 1373.94 175.244 1373.94 332.999 C 1373.94 490.754 1246.054 618.64 1088.299 618.64 C 1040.287 618.71 993.039 606.622 950.96 583.502 C 931.215 597.551 883.046 625.573 835.461 605.388 L 892.741 541.178 C 835.185 487.251 802.567 411.872 802.658 332.999 L 802.658 332.999 Z " fill="rgb(167,134,223)"/><g opacity="0.1"><path d=" M 1325.279 333.618 C 1325.279 184.373 1210.812 61.883 1064.884 49.1 C 1073.205 48.372 1081.621 47.977 1090.13 47.977 C 1247.886 47.977 1375.771 175.863 1375.771 333.618 C 1375.771 491.373 1247.885 619.259 1090.13 619.259 C 1081.634 619.259 1073.232 618.86 1064.924 618.132 C 1210.832 605.331 1325.279 482.85 1325.279 333.618 Z " fill="rgb(0,0,0)"/></g><path d=" M 430.07 1009.491 C 282.973 1009.56 155.915 906.632 125.452 762.723 C 94.99 618.815 169.444 473.23 303.952 413.69 C 438.461 354.149 596.288 396.914 682.336 516.217 C 768.385 635.52 759.155 798.778 660.206 907.621 L 725.199 980.477 L 692.766 994.234 C 642.594 1015.515 593.497 994.807 565.94 978.28 C 523.588 998.811 477.136 1009.482 430.07 1009.491 L 430.07 1009.491 Z  M 430.07 438.209 C 286.488 438.209 169.675 555.022 169.675 698.604 C 169.675 842.187 286.488 958.999 430.07 958.999 C 473.824 959.003 516.874 947.992 555.252 926.979 L 569.135 919.351 L 582.044 928.536 C 591.453 935.229 610.007 946.754 631.309 951.076 L 590.412 905.231 L 608.339 888.385 C 660.984 839.346 690.755 770.549 690.465 698.604 C 690.465 555.022 573.652 438.209 430.07 438.209 L 430.07 438.209 Z " fill="rgb(63,61,86)"/><path d=" M 715.711 698.604 C 715.711 540.849 587.825 412.963 430.07 412.963 C 272.315 412.963 144.429 540.849 144.429 698.604 C 144.429 856.359 272.315 984.245 430.07 984.245 C 478.082 984.315 525.33 972.227 567.409 949.107 C 587.154 963.156 635.323 991.177 682.908 970.993 L 625.628 906.783 C 683.184 852.855 715.802 777.476 715.711 698.604 Z " fill="rgb(167,134,223)"/><g opacity="0.1"><path d=" M 194.921 697.161 C 194.921 547.916 309.389 425.426 455.316 412.643 C 446.996 411.915 438.579 411.52 430.07 411.52 C 272.315 411.52 144.429 539.406 144.429 697.161 C 144.429 854.916 272.315 982.802 430.07 982.802 C 438.567 982.802 446.968 982.403 455.276 981.675 C 309.368 968.874 194.921 846.393 194.921 697.161 Z " fill="rgb(0,0,0)"/></g><path d=" M 1155.356 242.251 C 1136.667 210.673 1099.692 209.201 1099.692 209.201 C 1099.692 209.201 1063.662 204.593 1040.549 252.688 C 1019.006 297.516 989.274 340.799 1035.763 351.293 L 1044.16 325.157 L 1049.36 353.239 C 1055.979 353.715 1062.619 353.828 1069.251 353.579 C 1119.036 351.971 1166.449 354.049 1164.923 336.184 C 1162.893 312.435 1173.338 272.636 1155.356 242.251 Z " fill="rgb(47,46,65)"/><path d=" M 1033.108 518.801 C 1032.559 522.274 1031.763 525.704 1030.724 529.063 C 1029.555 532.352 1027.749 535.393 1026.68 538.716 C 1023.271 549.306 1027.996 561.114 1035.543 569.289 C 1042.088 576.35 1050.535 581.366 1059.867 583.733 C 1066.738 585.203 1073.745 585.939 1080.771 585.929 C 1100.199 586.588 1120.127 587.177 1138.536 580.934 C 1144.352 578.913 1149.97 576.36 1155.319 573.31 C 1157.008 572.505 1158.495 571.333 1159.674 569.881 C 1160.907 567.753 1161.456 565.297 1161.245 562.846 C 1161.204 554.61 1159.534 546.416 1159.93 538.189 C 1160.15 533.633 1161.003 529.079 1160.583 524.537 C 1159.393 513.966 1151.689 505.282 1141.334 502.841 C 1136.112 501.72 1130.696 502.331 1125.379 502.842 C 1111.577 504.168 1097.718 504.788 1083.853 504.699 C 1069.687 504.608 1055.609 502.446 1041.513 502.22 C 1037.345 502.153 1037.429 503.439 1036.102 507.473 C 1034.88 511.186 1033.88 514.969 1033.108 518.801 L 1033.108 518.801 Z " fill="rgb(47,46,65)"/><path d=" M 1073.31 315.43 C 1072.629 318.995 1071.893 322.69 1069.751 325.619 C 1067.287 328.989 1063.268 330.915 1060.617 334.14 C 1056.626 338.995 1056.397 345.827 1056.381 352.111 C 1056.366 357.9 1056.483 364.076 1059.712 368.881 C 1062.01 371.866 1064.861 374.381 1068.111 376.286 C 1080.219 384.446 1093.302 392.752 1107.9 393.021 C 1113.948 393.132 1120.433 391.57 1124.413 387.014 C 1126.131 384.874 1127.483 382.464 1128.411 379.881 C 1132.144 370.68 1134.406 360.95 1135.116 351.046 C 1135.654 346.39 1135.219 341.673 1133.84 337.194 C 1132.066 332.249 1128.481 328.181 1126.111 323.493 C 1123.31 317.919 1122.285 311.62 1123.175 305.445 C 1123.293 305.01 1123.257 304.548 1123.072 304.137 C 1122.677 303.691 1122.096 303.456 1121.502 303.501 L 1092.557 301.417 C 1089.862 301.283 1087.177 300.976 1084.521 300.498 C 1082.96 300.18 1078.839 297.964 1077.351 298.554 C 1074.597 299.644 1073.874 312.475 1073.31 315.43 Z " fill="rgb(160,97,106)"/><g opacity="0.1"><path d=" M 1073.31 316.334 C 1072.629 319.899 1071.893 323.593 1069.751 326.523 C 1067.287 329.893 1063.268 331.818 1060.617 335.044 C 1056.626 339.899 1056.397 346.73 1056.381 353.015 C 1056.366 358.804 1056.483 364.979 1059.712 369.785 C 1062.01 372.77 1064.861 375.284 1068.111 377.19 C 1080.219 385.349 1093.302 393.655 1107.9 393.924 C 1113.948 394.036 1120.433 392.474 1124.413 387.918 C 1126.131 385.778 1127.483 383.367 1128.411 380.785 C 1132.144 371.584 1134.406 361.853 1135.116 351.949 C 1135.654 347.293 1135.219 342.577 1133.84 338.097 C 1132.066 333.153 1128.481 329.085 1126.111 324.397 C 1123.309 318.823 1122.285 312.523 1123.175 306.348 C 1123.293 305.914 1123.257 305.451 1123.072 305.04 C 1122.677 304.595 1122.096 304.359 1121.502 304.404 L 1092.557 302.321 C 1089.862 302.187 1087.177 301.879 1084.521 301.401 C 1082.96 301.084 1078.839 298.868 1077.351 299.457 C 1074.597 300.548 1073.874 313.378 1073.31 316.334 Z " fill="rgb(0,0,0)"/></g><circle vector-effect="non-scaling-stroke" cx="1100.9906279455854" cy="276.84607780018877" r="42.46564841076247" fill="rgb(160,97,106)"/><path d=" M 1079.266 371.959 C 1081.364 374.388 1083.892 376.409 1086.725 377.919 C 1089.677 379.139 1092.848 379.743 1096.043 379.693 C 1103.698 379.909 1111.996 378.506 1117.321 373.003 C 1124.186 365.909 1123.959 354.467 1129.34 346.19 C 1129.773 345.44 1130.365 344.793 1131.074 344.294 C 1131.976 343.803 1132.996 343.568 1134.023 343.616 C 1140.818 343.553 1146.737 347.96 1152.08 352.16 C 1154.594 353.89 1156.752 356.089 1158.435 358.634 C 1159.492 360.695 1160.215 362.911 1160.579 365.198 C 1163.23 378.139 1164.088 391.371 1164.94 404.554 C 1165.411 411.835 1165.882 419.124 1165.847 426.42 C 1165.732 450.459 1160.144 474.095 1154.588 497.483 C 1153.872 500.497 1152.892 503.865 1150.152 505.309 C 1148.93 505.858 1147.618 506.178 1146.281 506.253 C 1130.367 508.122 1114.42 509.994 1098.398 510.24 Q 1089.019 510.385 1079.649 509.786 C 1078.574 509.772 1077.507 509.586 1076.491 509.236 C 1075.111 508.573 1073.925 507.566 1073.047 506.312 C 1064.381 495.391 1063.869 480.293 1063.925 466.352 Q 1064.128 415.223 1067.578 364.177 C 1067.768 361.368 1067.81 357.956 1065.786 355.747 C 1069.727 361.587 1074.243 367.018 1079.266 371.959 L 1079.266 371.959 Z " fill="rgb(255,255,255)"/><path d=" M 1070.271 322.926 C 1068.837 325.522 1058.262 331.969 1056.221 334.121 C 1044.815 346.143 1023.998 345.692 1013.566 358.569 C 1009.896 363.1 1007.989 368.792 1006.587 374.452 C 1004.603 382.456 1003.544 391.185 1006.867 398.733 C 1010.064 405.995 1016.795 411.016 1021.364 417.503 C 1026.381 424.625 1028.637 433.274 1030.799 441.714 C 1032.395 447.945 1034.005 454.331 1033.383 460.734 C 1032.676 468.014 1029.153 474.68 1027.073 481.692 C 1024.993 488.704 1024.634 497.055 1029.444 502.566 C 1032.977 506.614 1038.518 508.219 1043.816 509.122 C 1050.6 510.142 1057.441 510.737 1064.3 510.906 C 1070.355 511.173 1077.03 511.225 1081.685 507.343 C 1085.358 504.28 1086.954 499.31 1087.161 494.532 C 1087.367 489.754 1086.373 485.018 1085.75 480.276 C 1085.105 475.361 1084.857 470.402 1084.649 465.449 Q 1083.252 432.111 1084.268 398.73 C 1084.609 394.105 1084.382 389.455 1083.593 384.885 C 1082.294 378.932 1079.077 373.612 1076.392 368.142 C 1071.027 357.84 1068.597 346.262 1069.367 334.672 C 1070.18 322.761 1075.374 313.687 1070.271 322.926 Z " fill="rgb(255,255,255)"/><path d=" M 1129.903 323.829 C 1132.088 326.075 1139.511 326.815 1142.29 328.261 C 1144.904 329.468 1147.632 330.413 1150.433 331.08 C 1160.57 334.004 1170.212 338.43 1179.038 344.209 C 1180.872 345.282 1182.494 346.682 1183.822 348.341 C 1185.221 350.617 1186.123 353.164 1186.468 355.813 C 1187.829 362.554 1189.196 369.375 1188.891 376.245 C 1188.566 383.537 1186.37 390.599 1184.191 397.566 L 1176.049 423.596 C 1169.971 443.025 1163.855 462.646 1162.145 482.932 C 1161.199 494.175 1161.62 505.491 1163.398 516.632 C 1163.736 517.729 1163.586 518.918 1162.987 519.896 C 1162.451 520.427 1161.745 520.751 1160.993 520.814 C 1157.064 521.428 1153.261 519.425 1149.7 517.652 C 1138.818 512.236 1127.205 508.436 1115.226 506.372 C 1119.907 499.607 1123.519 492.162 1125.934 484.299 C 1127.305 479.305 1128.386 474.237 1129.169 469.118 L 1132.956 447.212 C 1134.497 439.205 1135.582 431.117 1136.205 422.988 C 1136.492 419.937 1136.314 416.86 1135.678 413.862 C 1134.805 411.01 1133.646 408.252 1132.219 405.633 C 1125.977 392.649 1123.048 377.831 1125.504 363.636 C 1126.579 357.423 1128.668 351.202 1127.797 344.958 C 1126.959 338.954 1127.83 334.289 1126.289 328.347 C 1119.965 303.952 1125.793 319.605 1129.903 323.829 Z " fill="rgb(255,255,255)"/><path d=" M 1013.458 379.098 C 1010.613 385.003 1005.855 390.034 1004.236 396.386 C 1003.606 399.355 1003.336 402.388 1003.432 405.422 C 1003.151 409.993 1003.603 414.58 1004.772 419.008 C 1005.676 421.809 1007.146 424.393 1008.205 427.139 C 1009.682 430.975 1010.34 435.078 1010.136 439.184 C 1009.851 444.872 1007.918 450.394 1007.767 456.087 C 1007.53 465.04 1011.671 473.457 1015.712 481.45 C 1017.77 476.352 1021.974 472.422 1027.199 470.712 C 1032.425 469.001 1038.138 469.684 1042.814 472.577 C 1043.739 471.441 1044.178 469.985 1044.035 468.526 Q 1044.483 452.945 1044.899 437.364 C 1045.337 421.298 1045.753 405.018 1042.058 389.377 C 1040.389 382.316 1037.793 375.281 1033.033 369.804 C 1030.527 366.92 1022.019 359.323 1017.905 362.554 C 1016.055 364.007 1016.488 367.962 1016.194 369.965 C 1015.752 373.131 1014.829 376.211 1013.458 379.098 L 1013.458 379.098 Z " fill="rgb(255,255,255)"/><path d=" M 1189.723 362.081 C 1190.867 366.339 1191.357 370.747 1191.176 375.152 Q 1191.258 388.621 1190.819 402.087 C 1190.864 406.691 1190.275 411.28 1189.069 415.724 C 1188.15 418.613 1186.732 421.323 1185.783 424.203 C 1182.939 432.835 1184.493 442.196 1184.737 451.281 C 1184.909 454.221 1184.658 457.171 1183.991 460.04 C 1182.49 465.672 1178.457 470.223 1175.641 475.326 C 1172.967 480.173 1171.354 485.605 1168.16 490.126 C 1164.966 494.648 1159.438 498.23 1154.08 496.842 C 1150.019 495.791 1147.134 492.197 1145.139 488.508 C 1140.785 480.397 1139.295 471.054 1140.912 461.991 C 1142.916 450.965 1149.392 441.183 1151.728 430.223 C 1154.936 415.171 1150.061 399.639 1150.206 384.251 C 1150.14 381.839 1150.467 379.432 1151.175 377.125 C 1152.4 373.61 1155.031 370.802 1157.462 367.983 C 1160.5 364.46 1163.322 360.757 1165.913 356.893 C 1167.653 354.298 1170.016 347.622 1173.102 347.067 C 1179.99 345.828 1188.013 356.759 1189.723 362.081 Z " fill="rgb(255,255,255)"/><path d=" M 977.714 512.107 C 973.905 511.149 969.98 510.732 966.054 510.867 C 957.711 511.328 949.969 515.354 944.799 521.919 C 939.628 528.483 937.53 536.954 939.037 545.173 C 939.988 549.574 941.543 553.822 943.657 557.798 C 946.75 564.073 950.458 570.334 956.183 574.355 C 959.632 576.566 963.346 578.334 967.236 579.617 L 997.386 590.975 C 1001.821 592.646 1006.257 594.317 1010.736 595.866 C 1033.24 603.644 1056.701 608.309 1080.468 609.729 C 1087.7 610.407 1094.992 610.037 1102.119 608.632 C 1103.842 608.407 1105.421 607.554 1106.553 606.236 C 1107.128 605.235 1107.466 604.116 1107.544 602.964 L 1109.399 589.976 C 1109.814 588.168 1109.76 586.283 1109.241 584.501 C 1108.391 582.318 1106.261 580.945 1104.23 579.779 C 1084.409 568.394 1061.265 562.114 1044.581 546.489 C 1040.654 542.811 1037.367 536.98 1032.595 534.482 C 1027.184 531.648 1020.811 530.031 1015.217 527.42 C 1002.989 521.712 990.967 515.153 977.714 512.107 Z " fill="rgb(47,46,65)"/><g opacity="0.1"><path d=" M 1007.814 529.616 C 1018.471 532.955 1063.463 556.09 1071.174 564.167 C 1070.141 564.539 1035.069 544.884 1034.016 544.568 C 1024.37 541.919 1014.923 538.59 1005.746 534.606 C 1003.919 533.761 993.874 529.788 994.328 527.482 C 994.842 524.88 1005.922 529.023 1007.814 529.616 Z " fill="rgb(0,0,0)"/></g><path d=" M 1140.761 616.465 C 1141.366 616.509 1141.966 616.332 1142.451 615.968 C 1142.88 615.416 1143.07 614.716 1142.979 614.024 L 1142.929 596.33 C 1137.841 593.905 1132.149 593.128 1126.563 592.382 L 1100.498 588.897 C 1101.096 588.977 1096.422 600.124 1097.139 601.612 C 1098.402 604.235 1108.056 606.559 1110.78 607.798 C 1120.252 612.103 1130.094 616.836 1140.761 616.465 Z " fill="rgb(160,97,106)"/><path d=" M 1058.981 596.268 C 1054.06 597.052 1048.567 597.745 1045.38 601.576 C 1041.338 606.434 1043.059 613.677 1044.987 619.695 C 1045.224 621.264 1046.087 622.671 1047.377 623.594 C 1048.668 624.518 1050.278 624.879 1051.84 624.597 C 1056.328 624.881 1061.105 625.104 1065.026 622.902 C 1066.802 621.729 1068.512 620.457 1070.148 619.095 C 1073.04 617.171 1076.219 615.717 1079.566 614.789 C 1085.719 612.854 1092.054 611.548 1098.471 610.893 C 1100.999 610.778 1103.502 610.337 1105.918 609.581 C 1108.364 608.792 1110.303 606.91 1111.163 604.489 C 1112.071 601.273 1110.202 597.995 1108.41 595.175 C 1106.345 591.481 1103.664 588.168 1100.482 585.377 C 1095.626 581.604 1093.223 584.501 1088.331 586.915 C 1079.071 591.485 1069.178 594.638 1058.981 596.268 L 1058.981 596.268 Z " fill="rgb(160,97,106)"/><path d=" M 1046.12 600.701 L 1014.871 591.465 C 1011.123 590.16 1007.207 589.401 1003.242 589.212 C 999.227 589.047 995.335 590.621 992.563 593.531 C 990.14 596.374 989.446 600.261 988.842 603.948 L 987.55 611.836 C 986.688 615.812 986.444 619.897 986.826 623.948 C 987.248 628.052 989.538 631.734 993.034 633.926 C 997.358 636.285 1002.658 635.133 1007.484 634.146 C 1017.233 632.153 1027.148 631.09 1037.098 630.97 C 1040.838 630.926 1044.761 630.973 1048.066 629.221 C 1051.961 626.912 1054.463 622.827 1054.75 618.308 C 1055.364 611.57 1053.119 602.77 1046.12 600.701 Z " fill="rgb(47,46,65)"/><path d=" M 1153.045 592.653 C 1157.096 591.943 1160.671 589.64 1164.553 588.281 C 1170.016 586.368 1175.937 586.369 1181.726 586.39 C 1183.855 586.195 1185.994 586.624 1187.883 587.623 C 1190.433 589.32 1191.087 592.718 1191.52 595.75 L 1194.136 614.046 C 1194.836 617.459 1194.908 620.972 1194.35 624.411 C 1193.582 627.802 1191.271 631.07 1187.907 631.945 C 1183.821 633.007 1179.815 630.397 1175.956 628.682 C 1166.313 624.397 1155.104 625.492 1145.049 622.289 C 1143.105 621.899 1141.421 620.695 1140.423 618.981 C 1140.079 617.965 1139.957 616.887 1140.063 615.819 C 1140.235 609.938 1138.995 601.908 1140.766 596.287 C 1142.358 591.233 1148.523 592.653 1153.045 592.653 Z " fill="rgb(47,46,65)"/><path d=" M 1219.174 504.743 C 1225.419 503.177 1231.891 502.735 1238.29 503.437 C 1243.401 504 1248.666 505.422 1252.397 508.959 C 1256.939 513.264 1258.398 519.922 1258.519 526.179 C 1258.719 538.64 1254.586 550.784 1246.826 560.537 C 1244.931 563.004 1242.678 565.173 1240.141 566.973 C 1237.404 568.685 1234.487 570.09 1231.443 571.164 L 1163.924 597.796 C 1146.162 604.802 1128.337 611.828 1109.809 616.447 C 1108.786 616.941 1107.606 617.001 1106.538 616.614 C 1105.47 616.226 1104.603 615.424 1104.134 614.389 C 1098.218 605.939 1093.256 596.861 1089.336 587.32 C 1088.959 586.859 1088.831 586.245 1088.991 585.672 C 1089.152 585.099 1089.581 584.641 1090.142 584.444 L 1137.898 557.004 C 1141.4 555.178 1144.665 552.929 1147.619 550.307 C 1149.682 548.307 1151.372 545.954 1152.609 543.359 C 1153.599 541.292 1153.691 536.412 1154.956 534.884 C 1156.194 533.388 1160.429 533.268 1162.385 532.68 C 1165.143 531.835 1167.844 530.814 1170.472 529.623 C 1181.155 524.844 1190.668 517.9 1200.908 512.304 C 1206.652 509.02 1212.79 506.479 1219.174 504.743 L 1219.174 504.743 Z " fill="rgb(47,46,65)"/><g opacity="0.1"><path d=" M 1192.101 525.234 C 1183.896 531.397 1173.273 537.061 1165.141 543.386 C 1162.366 545.544 1116.101 571.555 1115.447 575.009 C 1123.033 576.287 1171.36 542.479 1178.274 539.106 C 1185.188 535.732 1191.318 530.975 1197.391 526.253 C 1198.939 525.049 1205.499 521.432 1201.055 520.087 C 1198.552 519.33 1193.949 524.002 1192.101 525.234 Z " fill="rgb(0,0,0)"/></g><path d=" M 1135.646 324.426 L 1063.624 324.426 C 1057.531 324.426 1052.592 329.366 1052.592 335.459 L 1052.592 339.499 L 1051.809 339.499 L 1051.809 348.534 L 1052.592 348.534 L 1052.592 354.859 L 1051.809 354.859 L 1051.809 360.28 L 1052.592 360.28 L 1052.592 426.947 C 1052.592 433.041 1057.531 437.98 1063.624 437.98 L 1135.646 437.98 C 1141.74 437.98 1146.679 433.041 1146.679 426.947 L 1146.679 335.459 C 1146.679 329.366 1141.74 324.426 1135.646 324.426 L 1135.646 324.426 Z " fill="rgb(208,205,225)"/><path d=" M 1147.093 239.208 L 1110.564 220.073 L 1060.118 227.901 L 1049.682 273.998 L 1075.662 272.997 L 1082.92 256.062 L 1082.92 272.719 L 1094.908 272.258 L 1101.866 245.295 L 1106.215 273.998 L 1148.833 273.127 L 1147.093 239.208 L 1147.093 239.208 Z " fill="rgb(47,46,65)"/><path d=" M 1023.015 498.772 C 1024.668 501.581 1027.016 503.917 1029.834 505.555 C 1033.58 507.266 1037.906 507.15 1041.555 505.241 C 1045.151 503.313 1048.095 500.362 1050.014 496.76 C 1053.984 489.75 1054.806 481.361 1054.311 473.32 C 1053.815 465.279 1052.098 457.361 1051.338 449.34 C 1050.786 443.51 1050.741 437.644 1050.697 431.788 C 1050.56 430.556 1050.818 429.313 1051.434 428.238 C 1052.496 427.183 1053.869 426.497 1055.35 426.283 C 1063.363 423.902 1068.681 416.392 1072.494 408.954 C 1075.04 403.987 1077.254 398.558 1076.763 392.998 C 1076.272 387.439 1072.276 381.838 1066.723 381.271 C 1062.146 380.803 1057.919 383.711 1054.617 386.915 C 1046.288 395.05 1040.934 405.748 1039.417 417.292 C 1038.693 422.945 1038.9 428.751 1037.363 434.239 C 1034.08 445.957 1023.808 453.141 1018.689 463.685 C 1013.049 475.303 1016.162 488.492 1023.015 498.772 Z " fill="rgb(160,97,106)"/><path d=" M 1174.169 454.006 C 1171.809 459.496 1167.33 463.8 1161.75 465.939 C 1158.317 467.318 1154.53 467.55 1150.955 466.6 C 1147.361 465.603 1144.437 462.987 1143.046 459.526 C 1142.499 457.806 1142.199 456.017 1142.156 454.213 C 1141.642 446.311 1141.84 438.168 1144.711 430.788 C 1145.818 427.942 1147.31 425.242 1148.184 422.316 C 1149.043 418.936 1149.482 415.463 1149.492 411.976 L 1150.435 390.416 C 1150.591 388.85 1150.483 387.27 1150.115 385.741 C 1149.174 382.621 1146.258 380.594 1143.583 378.733 C 1137.122 374.24 1130.738 368.997 1127.607 361.777 C 1126.532 359.604 1126.146 357.153 1126.503 354.754 C 1127.386 350.473 1131.707 347.701 1135.977 346.767 C 1141.623 345.533 1147.528 346.658 1152.325 349.882 C 1157.122 353.106 1160.393 358.15 1161.382 363.844 C 1161.805 366.277 1161.799 368.762 1162.046 371.22 C 1162.571 376.432 1164.225 381.456 1165.261 386.591 C 1167.81 399.24 1166.489 412.315 1169.01 424.962 C 1171.119 435.536 1179.068 442.436 1174.169 454.006 Z " fill="rgb(160,97,106)"/><circle vector-effect="non-scaling-stroke" cx="1100.5993412950206" cy="363.89421219924435" r="9.03523836848467" fill="rgb(103,92,226)"/><path d=" M 216.151 741.094 L 202.726 728.045 L 175.769 736.418 L 178.358 767.632 L 233.786 765.057 L 216.759 741.92 L 216.151 741.094 L 216.151 741.094 Z " fill="rgb(176,118,118)"/><circle vector-effect="non-scaling-stroke" cx="186.7902088997193" cy="697.7352474745823" r="43.090329708469284" fill="rgb(176,118,118)"/><path d=" M 454.297 796.401 C 454.297 796.401 507.235 887.375 519.833 901.032 C 525.824 907.754 532.208 914.115 538.949 920.084 C 538.949 920.084 533.025 939.729 523.592 939.028 C 518.216 938.705 512.943 937.405 508.032 935.194 C 508.032 935.194 503.822 924.28 496.478 919.494 C 496.478 919.494 429.136 855.681 430.538 836.815 C 431.94 817.949 454.297 796.401 454.297 796.401 Z " fill="rgb(47,46,65)"/><path d=" M 265.772 926.224 C 265.772 926.224 322.215 970.034 398.923 928.869 L 405.533 924.004 C 405.533 924.004 394.377 949.1 393.342 955.904 C 392.142 963.794 363.097 1010.008 358.358 1012.222 C 353.618 1014.437 352.573 1016.479 352.573 1016.479 L 372.687 1038.618 L 380.124 1033.145 C 380.124 1033.145 409.122 992.06 417.604 984.545 C 426.085 977.029 466.495 899.522 466.495 899.522 C 466.495 899.522 481.944 870.319 443.387 868.122 C 404.829 865.926 387.086 876.435 387.086 876.435 L 318.656 887.305 L 265.772 926.224 Z " fill="rgb(47,46,65)"/><path d=" M 539.604 915.781 L 568.153 935.534 C 568.153 935.534 604.575 946.945 582.139 954.539 C 582.139 954.539 500.581 964.88 499.239 954.403 C 499.239 954.403 501.571 927.434 504.521 928.336 C 507.47 929.238 527.942 934.553 539.604 915.781 Z " fill="rgb(47,46,65)"/><path d=" M 382.651 1026.359 L 387.935 1055.376 C 387.935 1055.376 402.96 1084.111 384.92 1075.195 C 384.92 1075.195 329.712 1032.412 335.2 1025.312 C 335.2 1025.312 352.802 1010.512 354.032 1012.825 C 355.263 1015.139 364.368 1030.631 382.651 1026.359 Z " fill="rgb(47,46,65)"/><path d=" M 328.214 896.831 C 328.214 896.831 289.846 941.627 266.551 930.746 C 266.551 930.746 147.956 793.827 158.838 770.533 C 169.72 747.239 173.369 752.197 173.369 752.197 L 222.575 756.747 L 208.417 734.047 C 208.417 734.047 215.028 729.182 221.327 736.011 C 221.327 736.011 252.916 759.895 261.727 783.984 C 261.727 783.984 296.403 806.87 296.403 806.87 L 328.214 896.831 Z " fill="rgb(255,255,255)"/><path d=" M 483.158 804.461 L 416.648 875.062 L 357.067 769.869 L 413.708 701.435 L 483.158 804.461 L 483.158 804.461 Z " fill="rgb(63,61,86)"/><path d=" M 478.137 803.697 L 418.066 865.738 L 363.632 770.134 L 413.553 707.283 L 478.137 803.697 L 478.137 803.697 Z " fill="rgb(255,255,255)"/><path d=" M 413.389 872.364 L 416.648 875.062 L 414.558 879.146 L 321.556 906.826 L 320.677 903.64 L 324.908 899.264 L 413.389 872.364 L 413.389 872.364 Z " fill="rgb(179,179,179)"/><path d=" M 417.474 874.454 L 321.168 904.565 L 262.461 793.634 L 357.067 769.869 L 417.474 874.454 L 417.474 874.454 Z " fill="rgb(208,205,225)"/><path d=" M 410.224 859.408 L 406.091 862.448 L 360.234 782.825 L 364.974 780.612 L 410.224 859.408 L 410.224 859.408 Z " fill="rgb(63,61,86)"/><path d=" M 400.743 863.836 L 360.004 875.984 L 313.756 794.1 L 354.06 784.822 L 400.743 863.836 L 400.743 863.836 Z " fill="rgb(63,61,86)"/><path d=" M 285.972 803.082 L 294.407 800.696 C 294.407 800.696 341.446 795.377 342.133 810.158 C 342.133 810.158 288.093 818.081 288.093 818.081 L 280.796 808.165 L 285.972 803.082 Z " fill="rgb(176,118,118)"/><path d=" M 327.23 869.531 L 338.971 864.713 C 338.971 864.713 374.409 848.823 364.243 838.471 C 364.243 838.471 322.723 846.097 322.723 846.097 L 316.721 851.788 L 327.23 869.531 Z " fill="rgb(176,118,118)"/><path d=" M 316.767 846.659 C 316.767 846.659 335.884 865.71 331.534 870.185 C 331.534 870.185 255.856 933.521 238.174 914.688 C 238.174 914.688 134.345 801.296 167.867 793.187 C 167.867 793.187 210.245 804.037 210.245 804.037 L 254.497 879.747 L 316.767 846.659 Z " fill="rgb(255,255,255)"/><path d=" M 259.529 788.785 L 290.93 799.433 L 290.417 822.103 L 257.207 818.519 L 259.529 788.785 L 259.529 788.785 Z " fill="rgb(255,255,255)"/><g opacity="0.2"><path d=" M 287.831 858.4 L 253.999 878.203 L 215.344 818.754 L 252.657 867.726 L 287.831 858.4 L 287.831 858.4 Z " fill="rgb(0,0,0)"/></g><path d=" M 445.052 808.937 L 409.133 756.393 L 424.359 737.544 L 461.682 791.604 L 445.052 808.937 L 445.052 808.937 Z " fill="rgb(103,92,226)"/><path d=" M 444.039 830.063 L 389.356 750.566 L 392.054 747.307 L 446.481 826.992 L 444.039 830.063 L 444.039 830.063 Z " fill="rgb(230,230,230)"/><path d=" M 436.993 837.796 L 382.31 758.299 L 385.007 755.041 L 439.434 834.727 L 436.993 837.796 L 436.993 837.796 Z " fill="rgb(230,230,230)"/><path d=" M 430.99 843.488 L 376.307 763.99 L 379.004 760.732 L 433.431 840.418 L 430.99 843.488 L 430.99 843.488 Z " fill="rgb(230,230,230)"/><path d=" M 409.187 631.718 L 406.31 631.503 C 406.198 632.999 406.118 634.504 406.023 636.005 L 393.11 635.573 L 406.656 660.955 L 421.868 636.535 L 408.908 636.101 C 409 634.64 409.078 633.175 409.187 631.718 Z " fill="rgb(63,61,86)"/><path d=" M 484.925 424.82 L 487.219 426.571 C 490.659 422.065 494.252 417.567 497.899 413.201 L 495.685 411.351 C 492.011 415.749 488.391 420.281 484.925 424.82 Z " fill="rgb(63,61,86)"/><path d=" M 507.027 398.37 L 509.157 400.316 C 512.985 396.124 516.959 391.961 520.968 387.94 L 518.925 385.903 C 514.886 389.952 510.883 394.147 507.027 398.37 Z " fill="rgb(63,61,86)"/><path d=" M 531.358 373.973 L 533.309 376.099 C 537.495 372.255 541.818 368.458 546.155 364.813 L 544.3 362.604 C 539.93 366.276 535.575 370.101 531.358 373.973 Z " fill="rgb(63,61,86)"/><path d=" M 465.232 453.125 L 467.671 454.666 C 470.703 449.869 473.888 445.07 477.135 440.401 L 474.767 438.753 C 471.495 443.456 468.287 448.291 465.232 453.125 Z " fill="rgb(63,61,86)"/><path d=" M 557.727 351.817 L 559.484 354.105 C 563.992 350.643 568.63 347.243 573.268 343.997 L 571.614 341.633 C 566.94 344.903 562.268 348.329 557.727 351.817 Z " fill="rgb(63,61,86)"/><path d=" M 448.112 483.072 L 450.677 484.391 C 453.276 479.336 456.025 474.272 458.846 469.339 L 456.341 467.906 C 453.499 472.876 450.73 477.979 448.112 483.072 Z " fill="rgb(63,61,86)"/><path d=" M 420.282 564.286 L 417.488 563.567 C 416.062 569.103 414.742 574.748 413.564 580.346 L 416.388 580.941 C 417.557 575.385 418.867 569.78 420.282 564.286 Z " fill="rgb(63,61,86)"/><path d=" M 585.933 332.074 L 587.481 334.508 C 592.263 331.465 597.18 328.488 602.095 325.658 L 600.656 323.157 C 595.704 326.009 590.75 329.008 585.933 332.074 Z " fill="rgb(63,61,86)"/><path d=" M 413.238 597.752 L 410.391 597.285 C 409.465 602.917 408.651 608.657 407.973 614.344 L 410.838 614.685 C 411.511 609.041 412.319 603.344 413.238 597.752 Z " fill="rgb(63,61,86)"/><path d=" M 433.71 514.437 L 436.382 515.523 C 438.522 510.258 440.81 504.966 443.184 499.797 L 440.562 498.592 C 438.17 503.801 435.865 509.132 433.71 514.437 Z " fill="rgb(63,61,86)"/><path d=" M 422.153 546.979 L 424.913 547.822 C 426.577 542.377 428.385 536.9 430.288 531.541 L 427.569 530.576 C 425.652 535.974 423.83 541.493 422.153 546.979 Z " fill="rgb(63,61,86)"/><path d=" M 781.107 274.566 C 786.763 274.37 792.523 274.292 798.22 274.345 L 798.245 271.46 C 792.509 271.406 786.704 271.485 781.008 271.682 L 781.107 274.566 Z " fill="rgb(63,61,86)"/><path d=" M 615.755 314.904 L 617.082 317.466 C 622.121 314.855 627.279 312.326 632.414 309.947 L 631.201 307.329 C 626.028 309.726 620.831 312.274 615.755 314.904 Z " fill="rgb(63,61,86)"/><path d=" M 849.38 278.163 C 855.008 278.96 860.688 279.893 866.263 280.936 L 866.793 278.1 C 861.177 277.049 855.455 276.108 849.783 275.306 L 849.38 278.163 Z " fill="rgb(63,61,86)"/><path d=" M 883.008 284.455 C 888.534 285.745 894.11 287.18 899.579 288.717 L 900.359 285.939 C 894.85 284.39 889.233 282.946 883.665 281.646 L 883.008 284.455 Z " fill="rgb(63,61,86)"/><path d=" M 915.94 293.714 C 921.327 295.491 926.752 297.415 932.063 299.434 L 933.089 296.738 C 927.737 294.703 922.272 292.764 916.844 290.974 L 915.94 293.714 Z " fill="rgb(63,61,86)"/><path d=" M 815.324 274.869 C 821.006 275.167 826.747 275.596 832.39 276.141 L 832.668 273.27 C 826.984 272.719 821.199 272.288 815.477 271.988 L 815.324 274.869 Z " fill="rgb(63,61,86)"/><path d=" M 746.66 274.381 L 747.012 277.245 C 752.635 276.554 758.36 275.977 764.028 275.531 L 763.803 272.655 C 758.091 273.103 752.323 273.685 746.66 274.381 Z " fill="rgb(63,61,86)"/><path d=" M 679.351 288.816 L 680.205 291.572 C 685.626 289.893 691.16 288.314 696.651 286.877 L 695.921 284.087 C 690.389 285.533 684.814 287.124 679.351 288.816 Z " fill="rgb(63,61,86)"/><path d=" M 646.961 300.449 L 648.057 303.119 C 653.303 300.966 658.661 298.906 663.983 296.993 L 663.009 294.279 C 657.645 296.205 652.247 298.281 646.961 300.449 Z " fill="rgb(63,61,86)"/><path d=" M 712.686 280.1 L 713.29 282.921 C 718.833 281.733 724.485 280.652 730.089 279.709 L 729.61 276.863 C 723.964 277.814 718.27 278.903 712.686 280.1 Z " fill="rgb(63,61,86)"/><path d=" M 975.114 317.273 L 958.99 293.446 L 953.321 305.115 C 951.949 304.503 950.584 303.877 949.213 303.283 L 948.066 305.932 C 949.405 306.511 950.729 307.118 952.059 307.712 L 946.417 319.327 L 975.114 317.273 Z " fill="rgb(63,61,86)"/></g><path d=" M 240.831 646.367 C 239.88 643.022 237.321 640.159 233.871 639.309 C 233.035 639.103 232.171 639.02 231.311 639.055 C 231.002 639.067 230.915 639.156 230.771 638.94 C 230.664 638.78 230.662 638.389 230.618 638.201 C 230.481 637.616 230.309 637.038 230.098 636.476 C 229.376 634.557 228.163 632.858 226.701 631.428 C 223.967 628.751 220.272 626.904 216.433 626.57 C 214.332 626.387 212.246 626.728 210.26 627.412 C 209.231 627.765 208.234 628.206 207.263 628.693 C 206.97 628.84 206.022 629.558 205.728 629.511 C 205.404 629.46 204.753 628.655 204.489 628.452 C 201.232 625.953 197.209 624.971 193.152 625.001 C 188.573 625.034 184.163 625.263 180.343 628.055 C 179.535 628.646 178.765 629.293 178.032 629.975 C 177.646 630.333 177.272 630.705 176.915 631.093 C 176.7 631.327 176.49 631.566 176.289 631.812 C 175.946 632.228 176.001 632.365 175.522 632.075 C 173.684 630.958 171.554 630.436 169.409 630.699 C 168.135 630.856 166.895 631.238 165.718 631.742 C 165.317 631.913 164.39 632.597 163.963 632.603 C 163.539 632.61 162.625 631.976 162.188 631.815 C 159.831 630.945 157.29 630.73 154.812 631.133 C 152.257 631.547 149.746 632.567 147.581 633.976 C 146.539 634.654 145.631 635.405 144.901 636.413 C 144.585 636.848 144.301 637.308 143.943 637.712 C 143.734 637.948 143.32 638.19 143.208 638.489 C 143.275 638.31 140.413 637.207 140.143 637.136 C 138.704 636.761 137.239 636.837 135.83 637.301 C 133.18 638.172 130.902 640.128 129.029 642.133 C 128.067 643.162 127.225 644.301 126.511 645.513 C 126.168 646.094 125.855 646.692 125.569 647.302 C 125.43 647.597 125.338 647.967 125.155 648.233 C 124.919 648.577 124.761 648.583 124.334 648.733 C 122.166 649.492 120.189 650.778 118.684 652.516 C 117.161 654.274 116.173 656.438 115.759 658.718 C 115.734 658.852 115.72 659.409 115.641 659.481 C 115.533 659.581 115.097 659.537 114.932 659.557 C 114.361 659.624 113.794 659.723 113.234 659.856 C 112.203 660.1 111.199 660.459 110.249 660.929 C 106.546 662.761 103.898 666.196 102.602 670.061 C 101.242 674.116 101.266 678.763 102.892 682.743 C 103.154 683.386 103.467 684.01 103.833 684.6 C 104.059 684.963 104.131 684.964 103.985 685.344 C 103.822 685.767 103.524 686.178 103.331 686.591 C 102.699 687.94 102.257 689.37 101.978 690.831 C 101.521 693.228 101.294 695.746 101.745 698.161 C 101.955 699.282 102.32 700.378 102.878 701.377 C 103.162 701.886 103.494 702.369 103.869 702.816 C 104.064 703.048 104.271 703.27 104.488 703.482 C 104.612 703.603 104.774 703.709 104.879 703.845 C 105.136 704.175 105.19 703.903 105.058 704.388 C 104.872 705.066 104.452 705.735 104.195 706.394 C 103.93 707.074 103.69 707.763 103.471 708.459 C 103.028 709.868 102.652 711.302 102.418 712.761 C 101.967 715.563 102.046 718.548 103.371 721.119 C 103.938 722.218 104.751 723.183 105.737 723.934 C 106.219 724.301 106.742 724.617 107.29 724.877 C 107.572 725.011 107.931 725.068 108.06 725.341 C 108.198 725.634 107.993 726.215 107.946 726.543 C 107.539 729.392 107.334 732.384 108.181 735.176 C 108.961 737.748 110.679 740.019 112.909 741.522 C 117.235 744.438 123.067 744.274 127.612 741.939 C 128.797 741.331 129.906 740.575 130.894 739.684 C 133.412 743.073 138.594 742.966 142.274 742 C 146.859 740.797 150.538 737.609 152.658 733.42 C 155.556 736.948 161.639 735.804 163.649 731.976 C 164.141 731.039 164.433 730.006 164.577 728.962 C 164.652 728.412 164.604 727.858 164.661 727.313 C 164.733 726.618 165.197 725.943 165.464 725.272 C 165.983 723.964 166.306 722.613 166.32 721.203 C 166.327 720.466 166.233 719.749 166.163 719.018 C 166.1 718.361 166.283 717.748 166.386 717.099 C 165.21 717.293 163.778 716.975 162.67 716.634 C 161.583 716.3 160.565 715.419 159.797 714.614 C 158.015 712.745 156.927 710.295 156.183 707.857 C 154.549 702.505 155.218 696.085 160.601 693.147 C 163.109 691.779 170.621 691.784 173.608 692.46 C 176.748 693.171 180.308 700.1 180.483 700.751 C 180.592 701.154 180.537 701.653 180.907 701.922 C 181.721 702.513 183.063 701.488 183.664 700.982 C 184.699 700.109 185.438 698.947 186.078 697.77 C 187.472 695.205 188.596 692.455 189.39 689.647 C 190.002 687.482 190.394 685.249 191.194 683.14 C 191.99 681.041 193.245 679.164 195.196 677.975 C 197.319 676.681 199.752 676 202.083 675.187 C 204.393 674.381 206.663 673.397 208.453 671.687 C 208.847 671.311 209.229 670.912 209.546 670.469 C 209.796 670.12 210.044 669.451 210.425 669.229 C 211.017 668.885 211.882 669.781 212.395 670.106 C 214.923 671.712 217.032 673.951 218.733 676.397 C 220.424 678.83 221.812 681.171 222.94 683.888 C 223.777 685.903 224.299 688.483 225.771 690.134 C 226.428 690.872 231.311 691.318 232.892 690.674 C 234.474 690.03 236.247 688.359 236.777 687.312 C 237.321 686.239 237.451 685.062 237.219 683.888 C 237.082 683.197 236.803 682.552 236.65 681.874 C 236.522 681.305 236.405 680.766 236.128 680.244 C 235.603 679.255 234.705 678.544 233.622 678.247 C 234.749 677.208 235.682 675.965 236.328 674.576 C 237 673.133 237.569 671.377 237.73 669.793 C 237.861 668.506 237.659 667.173 236.954 666.067 C 236.216 664.907 234.906 664.151 233.774 663.427 C 235.504 662.073 236.985 660.427 238.202 658.605 C 240.569 655.06 242.034 650.593 240.831 646.367 Z " fill-rule="evenodd" fill="rgb(25,24,71)"/></g></g></svg>