<?xml version="1.0" encoding="UTF-8" standalone="no"?><!-- Generator: Gravit.io --><svg xmlns="http://www.w3.org/2000/svg" xmlns:xlink="http://www.w3.org/1999/xlink" style="isolation:isolate" viewBox="0 0 862 703.19" width="862pt" height="703.19pt"><defs><clipPath id="_clipPath_d4MkhTYLSks66279lLoyadI7mzSShKxh"><rect width="862" height="703.19"/></clipPath></defs><g clip-path="url(#_clipPath_d4MkhTYLSks66279lLoyadI7mzSShKxh)"><mask id="_mask_VMCwl24DHZkvyUlzPgj3vveqTyd2gQTw" x="-200%" y="-200%" width="400%" height="400%"><rect x="-200%" y="-200%" width="400%" height="400%" style="fill:white;"/><line x1="536" y1="276.74" x2="540.36" y2="272.62" fill="black" stroke="none"/></mask><line x1="536" y1="276.74" x2="540.36" y2="272.62" mask="url(#_mask_VMCwl24DHZkvyUlzPgj3vveqTyd2gQTw)" vector-effect="non-scaling-stroke" stroke-width="2" stroke="rgb(83,84,97)" stroke-linejoin="miter" stroke-linecap="butt" stroke-miterlimit="10"/><mask id="_mask_4WApX00shVsEDLLWE2gGBQG8ODpHsiol" x="-200%" y="-200%" width="400%" height="400%"><rect x="-200%" y="-200%" width="400%" height="400%" style="fill:white;"/><line x1="473" y1="338.24" x2="632.95" y2="186.88" fill="black" stroke="none"/></mask><line x1="473" y1="338.24" x2="632.95" y2="186.88" mask="url(#_mask_4WApX00shVsEDLLWE2gGBQG8ODpHsiol)" vector-effect="non-scaling-stroke" stroke-width="2" stroke-dasharray="12.58,12.58" stroke="rgb(83,84,97)" stroke-linejoin="miter" stroke-linecap="butt" stroke-miterlimit="10"/><mask id="_mask_uTmg9pBdEKfp8LKRtu1j3X81yJCj2SVg" x="-200%" y="-200%" width="400%" height="400%"><rect x="-200%" y="-200%" width="400%" height="400%" style="fill:white;"/><line x1="714.02" y1="108.28" x2="718.37" y2="104.16" fill="black" stroke="none"/></mask><line x1="714.02" y1="108.28" x2="718.37" y2="104.16" mask="url(#_mask_uTmg9pBdEKfp8LKRtu1j3X81yJCj2SVg)" vector-effect="non-scaling-stroke" stroke-width="2" stroke="rgb(83,84,97)" stroke-linejoin="miter" stroke-linecap="butt" stroke-miterlimit="10"/><mask id="_mask_dtO4VzYsDplKMa5vp43OZRnefnhoGHyO" x="-200%" y="-200%" width="400%" height="400%"><rect x="-200%" y="-200%" width="400%" height="400%" style="fill:white;"/><line x1="537.63" y1="427.99" x2="542.1" y2="432" fill="black" stroke="none"/></mask><line x1="537.63" y1="427.99" x2="542.1" y2="432" mask="url(#_mask_dtO4VzYsDplKMa5vp43OZRnefnhoGHyO)" vector-effect="non-scaling-stroke" stroke-width="2" stroke="rgb(83,84,97)" stroke-linejoin="miter" stroke-linecap="butt" stroke-miterlimit="10"/><mask id="_mask_Hb2nlYZOd02Rg3QuRGn0Yo4tX2myOZT8" x="-200%" y="-200%" width="400%" height="400%"><rect x="-200%" y="-200%" width="400%" height="400%" style="fill:white;"/><line x1="498.34" y1="509.86" x2="660.37" y2="655.32" fill="black" stroke="none"/></mask><line x1="498.34" y1="509.86" x2="660.37" y2="655.32" mask="url(#_mask_Hb2nlYZOd02Rg3QuRGn0Yo4tX2myOZT8)" vector-effect="non-scaling-stroke" stroke-width="2" stroke-dasharray="12.44,12.44" stroke="rgb(83,84,97)" stroke-linejoin="miter" stroke-linecap="butt" stroke-miterlimit="10"/><mask id="_mask_oMXsXk2hMhYZJmOxxLVX5B5uie0urxOi" x="-200%" y="-200%" width="400%" height="400%"><rect x="-200%" y="-200%" width="400%" height="400%" style="fill:white;"/><line x1="718.02" y1="589.93" x2="722.48" y2="593.93" fill="black" stroke="none"/></mask><line x1="718.02" y1="589.93" x2="722.48" y2="593.93" mask="url(#_mask_oMXsXk2hMhYZJmOxxLVX5B5uie0urxOi)" vector-effect="non-scaling-stroke" stroke-width="2" stroke="rgb(83,84,97)" stroke-linejoin="miter" stroke-linecap="butt" stroke-miterlimit="10"/><g style="opacity:0.5;"><g opacity="0.5"><linearGradient id="_lgradient_2" x1="0" y1="0.5" x2="6.123233995736766e-17" y2="-0.5" gradientTransform="matrix(258.58,0,0,258.58,601.01,444.62)" gradientUnits="userSpaceOnUse"><stop offset="0%" stop-opacity="0.1" style="stop-color:rgb(128,128,128)"/></linearGradient><circle vector-effect="non-scaling-stroke" cx="730.3" cy="573.91" r="129.28999999999996" fill="url(#_lgradient_2)"/></g></g><circle vector-effect="non-scaling-stroke" cx="730.3" cy="573.2" r="126.55999999999995" fill="rgb(245,245,245)"/><path d=" M 800.3 584.6 C 800.3 631.21 769.88 683.1 732.37 683.1 C 694.86 683.1 664.44 631.2 664.44 584.6 C 664.44 538 694.86 514.33 732.37 514.33 C 769.88 514.33 800.3 537.98 800.3 584.6 Z " fill="rgb(253,216,53)"/><path d=" M 730.66 700.14 C 755.391 700.178 779.586 692.937 800.23 679.32 C 795.57 653.83 777.82 652.38 777.82 652.38 L 680 652.38 C 680 652.38 663.25 653.76 658 677.2 C 679.272 692.162 704.653 700.175 730.66 700.14 L 730.66 700.14 Z " fill="rgb(103,92,226)"/><g opacity="0.1"><path d=" M 709.61 621.29 L 748.75 621.29 L 748.75 654.63 C 748.75 664.317 740.897 672.17 731.21 672.17 L 727.15 672.17 C 717.463 672.17 709.61 664.317 709.61 654.63 L 709.61 621.29 L 709.61 621.29 Z " fill="rgb(0,0,0)"/></g><path d=" M 713 619.84 L 745.45 619.84 C 746.338 619.84 747.191 620.193 747.819 620.821 C 748.447 621.449 748.8 622.302 748.8 623.19 L 748.8 653.19 C 748.8 662.877 740.947 670.73 731.26 670.73 L 727.2 670.73 C 717.513 670.73 709.66 662.877 709.66 653.19 L 709.66 623.19 C 709.66 621.344 711.154 619.846 713 619.84 L 713 619.84 Z " fill="rgb(253,183,151)"/><g opacity="0.1"><path d=" M 709.68 636.08 C 722.294 640.794 736.18 640.833 748.82 636.19 L 748.82 631.38 L 709.68 631.38 L 709.68 636.08 Z " fill="rgb(0,0,0)"/></g><circle vector-effect="non-scaling-stroke" cx="729.33" cy="582.59" r="56.10000000000002" fill="rgb(253,183,151)"/><ellipse vector-effect="non-scaling-stroke" cx="674.38" cy="580.2" rx="5.220000000000027" ry="9.789999999999964" fill="rgb(253,183,151)"/><ellipse vector-effect="non-scaling-stroke" cx="783.98" cy="580.2" rx="5.220000000000027" ry="9.789999999999964" fill="rgb(253,183,151)"/><g opacity="0.1"><path d=" M 679.61 552.16 C 679.61 552.16 711.37 595.6 784.07 580.75 C 784.07 580.75 792.19 570.87 772.42 540.52 C 752.65 510.17 697.61 515.11 679.61 552.16 Z " fill="rgb(0,0,0)"/></g><path d=" M 679.61 551.46 C 679.61 551.46 711.37 594.87 784.07 580.05 C 784.07 580.05 792.19 570.17 772.42 539.82 C 752.65 509.47 697.61 514.4 679.61 551.46 Z " fill="rgb(253,216,53)"/><g style="opacity:0.5;"><g opacity="0.5"><linearGradient id="_lgradient_3" x1="0" y1="0.5" x2="6.123233995736766e-17" y2="-0.5" gradientTransform="matrix(258.58,0,0,258.58,603.42,0)" gradientUnits="userSpaceOnUse"><stop offset="0%" stop-opacity="0.11087734849363809" style="stop-color:rgb(128,128,128)"/><stop offset="99.99999999999432%" stop-opacity="0.1" style="stop-color:rgb(128,128,128)"/></linearGradient><circle vector-effect="non-scaling-stroke" cx="732.71" cy="129.29" r="129.28999999999996" fill="url(#_lgradient_3)"/></g></g><circle vector-effect="non-scaling-stroke" cx="732.97" cy="128.46" r="126.55999999999995" fill="rgb(245,245,245)"/><path d=" M 733.07 255.52 C 757.801 255.558 781.996 248.317 802.64 234.7 C 797.98 209.21 780.23 207.76 780.23 207.76 L 682.37 207.76 C 682.37 207.76 665.62 209.14 660.37 232.58 C 681.653 247.55 707.049 255.564 733.07 255.52 L 733.07 255.52 Z " fill="rgb(103,92,226)"/><circle vector-effect="non-scaling-stroke" cx="731.74" cy="125.78999999999999" r="61.09000000000003" fill="rgb(51,51,51)"/><g opacity="0.1"><path d=" M 712 176.67 L 751.14 176.67 L 751.14 210 C 751.14 219.687 743.287 227.54 733.6 227.54 L 729.54 227.54 C 724.888 227.54 720.427 225.692 717.137 222.403 C 713.848 219.113 712 214.652 712 210 L 712 176.67 L 712 176.67 Z " fill="rgb(0,0,0)"/></g><path d=" M 715.37 175.22 L 747.82 175.22 C 748.708 175.22 749.561 175.573 750.189 176.201 C 750.817 176.829 751.17 177.682 751.17 178.57 L 751.17 208.57 C 751.17 218.257 743.317 226.11 733.63 226.11 L 729.57 226.11 C 724.913 226.118 720.444 224.274 717.148 220.983 C 713.852 217.693 712 213.227 712 208.57 L 712 178.57 C 712 177.678 712.356 176.823 712.988 176.194 C 713.621 175.565 714.478 175.215 715.37 175.22 L 715.37 175.22 Z " fill="rgb(253,183,151)"/><g opacity="0.1"><path d=" M 712.1 191.46 C 724.714 196.174 738.6 196.213 751.24 191.57 L 751.24 186.76 L 712.1 186.76 L 712.1 191.46 Z " fill="rgb(0,0,0)"/></g><circle vector-effect="non-scaling-stroke" cx="731.74" cy="137.97" r="56.10000000000002" fill="rgb(253,183,151)"/><g opacity="0.1"><path d=" M 691.78 86.94 C 691.78 86.94 715.42 134.94 782.12 107.06 L 766.59 82.71 L 739.06 72.83 L 691.78 86.94 Z " fill="rgb(0,0,0)"/></g><path d=" M 691.78 86.24 C 691.78 86.24 715.42 134.24 782.12 106.36 L 766.59 82 L 739.06 72.12 L 691.78 86.24 Z " fill="rgb(51,51,51)"/><path d=" M 691.57 82.99 C 693.154 78.056 695.897 73.575 699.57 69.92 C 710.57 59.01 728.7 56.71 737.98 44.27 C 739.001 46.049 739.222 48.178 738.587 50.129 C 737.953 52.08 736.523 53.672 734.65 54.51 C 743.53 54.45 753.84 53.67 758.87 46.35 C 761.407 52.253 760.317 59.089 756.07 63.91 C 763.95 64.27 772.36 69.62 772.87 77.49 C 773.21 82.73 769.92 87.7 765.61 90.71 C 761.3 93.72 756.09 95.1 750.95 96.23 C 736 99.54 681.79 113.39 691.57 82.99 Z " fill="rgb(51,51,51)"/><ellipse vector-effect="non-scaling-stroke" cx="675.61" cy="137.92" rx="5.220000000000027" ry="9.789999999999992" fill="rgb(253,183,151)"/><ellipse vector-effect="non-scaling-stroke" cx="787.84" cy="137.92" rx="5.220000000000027" ry="9.789999999999992" fill="rgb(253,183,151)"/><g><path d=" M 90 556.27 L 45 556.27 C 36.716 556.27 30 549.554 30 541.27 L 30 465.27 L 90 465.27 L 120 510.27 L 90 556.27 Z " fill="rgb(0,80,199)"/><path d=" M 474.897 465.27 L 422 465.27 L 392 510.27 L 422 556.27 L 467 556.27 C 475.291 556.27 482 549.561 482 541.27 L 482 477.707 C 482 472.382 479.072 467.932 474.897 465.27 Z " fill="rgb(0,69,151)"/><path d=" M 452 495.27 L 407 495.27 C 398.709 495.27 392 488.561 392 480.27 L 392 390.27 C 392 381.979 398.709 375.27 407 375.27 L 452 375.27 C 485.091 375.27 512 402.179 512 435.27 C 512 468.361 485.091 495.27 452 495.27 Z " fill="rgb(167,134,223)"/><path d=" M 105 495.27 L 60 495.27 C 26.909 495.27 0 468.361 0 435.27 C 0 402.179 26.909 375.27 60 375.27 L 105 375.27 C 113.291 375.27 120 381.979 120 390.27 L 120 480.27 C 120 488.561 113.291 495.27 105 495.27 Z " fill="rgb(167,134,223)"/><rect x="90" y="345.27" width="332" height="211" transform="matrix(1,0,0,1,0,0)" fill="rgb(167,134,223)" vector-effect="non-scaling-stroke" stroke-width="1" stroke="rgb(167,134,223)" stroke-linejoin="miter" stroke-linecap="butt" stroke-miterlimit="2"/><rect x="256" y="345.27" width="166" height="211" transform="matrix(1,0,0,1,0,0)" fill="rgb(167,134,223)"/><path d=" M 271 119.27 L 271 180.27 C 271 188.669 264.401 195.27 256 195.27 C 247.599 195.27 241 188.669 241 180.27 L 241 119.27 C 241 110.869 247.599 104.27 256 104.27 C 264.401 104.27 271 110.869 271 119.27 Z " fill="rgb(0,123,255)"/><path d=" M 256 195.27 L 256 104.27 C 264.401 104.27 271 110.869 271 119.27 L 271 180.27 C 271 188.669 264.401 195.27 256 195.27 Z " fill="rgb(0,80,199)"/><path d=" M 422 330.27 C 422 338.669 415.401 345.27 407 345.27 L 105 345.27 C 96.599 345.27 90 338.669 90 330.27 C 90 239.369 165.099 165.27 256 165.27 C 346.901 165.27 422 239.369 422 330.27 Z " fill="rgb(167,134,223)"/><path d=" M 422 330.27 C 422 338.669 415.401 345.27 407 345.27 L 256 345.27 L 256 165.27 C 346.901 165.27 422 239.369 422 330.27 Z " fill="rgb(167,134,223)"/><g><path d=" M 452 345.27 C 452 361.77 438.5 375.27 422 375.27 L 90 375.27 C 73.5 375.27 60 361.77 60 345.27 C 60 328.77 73.5 315.27 90 315.27 L 422 315.27 C 438.5 315.27 452 328.77 452 345.27 Z " fill="rgb(225,228,251)"/><circle vector-effect="non-scaling-stroke" cx="194.99999999999997" cy="270.27" r="15" fill="rgb(225,228,251)"/></g><circle vector-effect="non-scaling-stroke" cx="316" cy="270.27" r="15" fill="rgb(197,201,247)"/><path d=" M 346 465.27 L 165 465.27 C 156.599 465.27 150 471.869 150 480.27 L 150 556.27 L 361 556.27 L 361 480.27 C 361 471.869 354.401 465.27 346 465.27 Z " fill="rgb(121,134,232)"/><path d=" M 256 44.27 C 231.099 44.27 211 64.369 211 89.27 C 211 114.171 231.099 134.27 256 134.27 C 280.901 134.27 301 114.171 301 89.27 C 301 64.369 280.901 44.27 256 44.27 Z " fill="rgb(167,134,223)"/><path d=" M 452 345.27 C 452 361.77 438.5 375.27 422 375.27 L 256 375.27 L 256 315.27 L 422 315.27 C 438.5 315.27 452 328.77 452 345.27 Z " fill="rgb(197,201,247)"/><path d=" M 256 134.27 L 256 44.27 C 280.901 44.27 301 64.369 301 89.27 C 301 114.171 280.901 134.27 256 134.27 Z " fill="rgb(167,134,223)"/><path d=" M 361 480.27 L 361 556.27 L 256 556.27 L 256 465.27 L 346 465.27 C 354.401 465.27 361 471.869 361 480.27 Z " fill="rgb(110,119,229)"/></g></g></svg>