<?xml version="1.0" encoding="UTF-8" standalone="no"?><!-- Generator: Gravit.io --><svg xmlns="http://www.w3.org/2000/svg" xmlns:xlink="http://www.w3.org/1999/xlink" style="isolation:isolate" viewBox="0 0 1370 300" width="1370pt" height="300pt"><defs><clipPath id="_clipPath_tJNHMWddIMCwb13WXoTBLrsm7b7eaFQp"><rect width="1370" height="300"/></clipPath></defs><g clip-path="url(#_clipPath_tJNHMWddIMCwb13WXoTBLrsm7b7eaFQp)"><rect width="1370" height="300" style="fill:rgb(254,199,215)" fill-opacity="0"/><g><g><g><g><g><path d=" M 621.314 156.513 C 621.314 143.212 614.34 130.934 603.204 124.04 C 605.663 118.916 606.948 113.298 606.948 107.553 C 606.948 91.026 586.54 77.633 573.177 70.637 C 571.751 50.882 555.229 35.245 535.124 35.245 C 523.754 35.245 513.352 39.837 506.241 47.769 C 499.067 39.838 488.887 35.245 477.992 35.245 C 464.766 35.245 452.252 42.339 445.385 53.632 C 442.215 58.845 440.323 64.805 439.924 70.894 C 439.922 70.929 439.917 70.964 439.915 71 C 439.109 71.41 438.132 71.923 436.94 72.568 C 433.94 74.187 429.41 76.808 424.863 80.101 C 412.459 89.082 406.169 98.318 406.169 107.553 C 406.169 113.298 407.453 118.916 409.912 124.04 C 398.776 130.934 391.803 143.212 391.803 156.513 C 391.803 169.366 398.183 181.164 408.702 188.21 C 407.038 192.558 406.169 197.214 406.169 201.88 C 406.169 215.67 413.453 228.166 425.317 234.975 C 430.303 252.353 450.15 264.755 473.503 264.755 C 485.586 264.755 497.414 261.209 506.533 254.956 C 515.596 261.29 527.195 264.755 539.614 264.755 C 562.967 264.755 582.815 252.353 587.8 234.975 C 599.664 228.166 606.948 215.67 606.948 201.88 C 606.948 197.214 606.079 192.559 604.415 188.21 C 614.933 181.164 621.314 169.367 621.314 156.513 Z  M 473.503 255.79 C 453.757 255.79 436.587 245.145 433.566 231.03 C 433.282 229.704 432.413 228.577 431.203 227.966 C 423.959 224.31 418.725 217.985 416.43 210.518 C 420.176 212.385 424.213 213.335 428.422 213.335 L 428.436 213.335 C 434.535 213.335 440.795 211.1 445.5 207.231 C 447.352 205.707 447.627 202.755 446.121 200.919 C 444.607 199.075 441.649 198.793 439.812 200.299 C 436.562 202.962 432.626 204.369 428.426 204.369 C 423.4 204.369 418.706 202.306 415.311 198.667 C 415.697 195.106 416.73 191.684 418.401 188.46 C 419.538 186.266 418.685 183.566 416.494 182.423 C 406.794 177.366 400.768 167.437 400.768 156.513 C 400.768 145.087 407.494 134.647 417.903 129.916 C 419.09 129.376 419.984 128.347 420.35 127.095 C 420.716 125.844 420.519 124.494 419.811 123.4 C 416.752 118.673 415.134 113.193 415.134 107.553 C 415.134 96.926 430.384 86.318 440.564 80.763 C 442.406 90.084 447.695 98.538 455.484 104.239 C 457.377 105.625 460.33 105.207 461.749 103.27 C 463.211 101.272 462.778 98.467 460.78 97.005 C 449.473 88.728 445.61 72.873 451.893 60.354 C 456.8 50.573 467.043 44.21 477.992 44.21 C 487.506 44.21 496.311 48.791 501.795 56.527 L 501.796 56.979 C 501.778 59.935 501.77 66.492 501.779 81.313 L 476.843 81.313 C 475.03 81.313 473.396 82.405 472.702 84.079 C 472.008 85.754 472.391 87.682 473.672 88.964 C 480.678 95.974 480.678 107.378 473.673 114.388 C 466.876 121.188 455.045 121.167 448.269 114.388 C 446.519 112.637 443.681 112.636 441.929 114.386 C 440.178 116.136 440.177 118.975 441.928 120.726 C 442.62 121.418 443.346 122.065 444.097 122.671 L 432.748 134.327 C 426.647 140.454 426.654 150.405 432.769 156.523 C 438.765 162.523 449.014 162.496 454.983 156.524 C 456.733 154.772 456.732 151.934 454.981 150.184 C 453.23 148.434 450.392 148.435 448.642 150.185 C 446.174 152.655 441.662 152.738 439.111 150.186 C 436.481 147.555 436.481 143.274 439.111 140.643 C 439.124 140.629 439.138 140.615 439.151 140.601 C 439.151 140.601 452.231 127.169 452.232 127.167 C 452.385 127.011 456.921 128.32 457.492 128.394 C 465.737 129.461 474.141 126.601 480.013 120.726 C 488.229 112.506 490.015 100.252 485.373 90.278 L 501.787 90.278 C 501.797 101.743 501.816 116.91 501.844 136.984 L 490.869 136.984 L 490.869 135.851 C 490.869 133.375 488.862 131.368 486.387 131.368 C 483.911 131.368 481.904 133.375 481.904 135.851 L 481.904 147.08 C 481.904 149.556 483.911 151.563 486.387 151.563 C 488.862 151.563 490.869 149.556 490.869 147.08 L 490.869 145.95 L 501.857 145.95 C 501.86 148.069 501.889 168.029 501.901 175.613 L 489.355 175.613 C 488.596 173.522 487.384 171.56 485.71 169.885 C 482.743 166.917 478.799 165.282 474.603 165.282 C 470.407 165.282 466.463 166.917 463.496 169.885 C 461.746 171.636 461.747 174.474 463.498 176.225 C 465.249 177.974 468.087 177.974 469.837 176.223 C 475.79 170.27 485.546 179.586 479.369 185.766 C 477.619 187.517 477.619 190.355 479.37 192.105 C 481.059 193.793 483.977 193.837 485.709 192.104 C 487.855 189.957 489.246 187.338 489.887 184.579 L 501.916 184.579 C 501.933 194.904 501.951 204.678 501.968 213.357 L 466.799 213.357 C 465.61 213.357 464.47 213.829 463.629 214.67 C 457.506 220.796 457.506 230.763 463.628 236.889 C 469.578 242.842 479.926 242.809 485.842 236.889 C 487.592 235.138 487.592 232.3 485.841 230.55 C 484.089 228.8 481.252 228.8 479.502 230.55 C 476.982 233.071 472.475 233.057 469.97 230.551 C 467.743 228.323 467.402 224.912 468.946 222.322 L 501.987 222.322 C 502.004 229.977 502.049 245.743 502.057 247.165 C 494.35 252.666 484.074 255.79 473.503 255.79 Z  M 596.624 182.424 C 594.433 183.566 593.579 186.267 594.716 188.461 C 596.883 192.643 597.982 197.158 597.982 201.88 C 597.982 212.968 591.826 222.964 581.914 227.967 C 580.704 228.578 579.835 229.704 579.551 231.03 C 576.529 245.145 559.36 255.79 539.614 255.79 C 528.902 255.79 518.617 252.667 511.038 247.17 L 511.002 222.321 L 527.204 222.321 C 528.835 229.256 535.067 234.436 542.49 234.436 C 551.15 234.436 558.196 227.388 558.196 218.724 C 558.196 210.06 551.15 203.012 542.49 203.012 C 535.713 203.012 529.926 207.328 527.728 213.356 L 510.989 213.356 L 510.947 184.579 L 552.579 184.579 C 554.513 191.064 560.527 195.808 567.631 195.808 C 576.291 195.808 583.337 188.759 583.337 180.096 C 583.337 171.432 576.291 164.384 567.631 164.384 C 564.079 164.384 560.799 165.57 558.166 167.566 C 555.533 169.563 553.546 172.37 552.579 175.613 L 510.933 175.613 L 510.89 145.95 L 520.704 145.95 C 522.638 152.435 528.652 157.179 535.756 157.179 C 544.416 157.179 551.462 150.13 551.462 141.467 C 551.462 132.803 544.416 125.755 535.756 125.755 C 528.652 125.755 522.638 130.498 520.704 136.984 L 510.877 136.984 L 510.809 90.278 L 523.903 90.278 C 525.897 96.665 531.865 101.314 538.898 101.314 C 547.559 101.314 554.605 94.266 554.605 85.602 C 554.605 76.939 547.559 69.89 538.898 69.89 C 531.724 69.89 525.663 74.728 523.792 81.313 L 510.796 81.313 L 510.76 56.488 C 516.08 48.776 525.092 44.21 535.124 44.21 C 551.218 44.21 564.312 57.312 564.312 73.416 C 564.312 76.182 566.49 77.286 567.419 77.757 C 586.557 87.45 597.982 98.589 597.982 107.553 C 597.983 118.716 590.67 131.854 578.433 132.249 C 577.236 132.285 576.124 132.787 575.304 133.661 C 574.484 134.531 574.053 135.674 574.094 136.871 C 574.129 138.041 574.614 139.135 575.456 139.95 C 576.295 140.766 577.402 141.215 578.572 141.215 L 578.585 141.215 C 578.626 141.215 578.67 141.215 578.71 141.21 C 586.204 140.365 593.485 137.537 598.45 131.647 C 606.994 136.918 612.348 146.322 612.348 156.513 C 612.348 167.437 606.323 177.366 596.624 182.424 Z  M 535.749 218.724 C 535.749 215.004 538.773 211.977 542.49 211.977 C 546.207 211.977 549.231 215.004 549.231 218.724 C 549.231 222.444 546.207 225.471 542.49 225.471 C 538.773 225.471 535.749 222.444 535.749 218.724 Z  M 560.89 180.095 C 560.89 176.375 563.914 173.349 567.631 173.349 C 571.348 173.349 574.372 176.375 574.372 180.095 C 574.372 183.816 571.348 186.842 567.631 186.842 C 563.914 186.842 560.89 183.816 560.89 180.095 Z  M 529.015 141.466 C 529.015 137.746 532.039 134.72 535.756 134.72 C 539.473 134.72 542.497 137.746 542.497 141.466 C 542.497 145.187 539.473 148.213 535.756 148.213 C 532.039 148.213 529.015 145.187 529.015 141.466 Z  M 532.157 85.602 C 532.157 81.882 535.181 78.855 538.898 78.855 C 542.615 78.855 545.639 81.882 545.639 85.602 C 545.639 89.322 542.615 92.349 538.898 92.349 C 535.181 92.349 532.157 89.322 532.157 85.602 Z " fill="rgb(167,134,223)"/><path d=" M 451.171 183.857 C 449.925 183.75 448.688 184.171 447.764 185.014 C 446.931 185.776 446.42 186.816 446.325 187.941 C 446.222 189.138 446.59 190.299 447.365 191.213 C 448.136 192.128 449.217 192.688 450.409 192.791 C 450.539 192.8 450.665 192.805 450.795 192.805 C 451.915 192.805 452.987 192.388 453.816 191.63 C 454.65 190.868 455.161 189.828 455.259 188.703 C 455.259 188.698 455.259 188.698 455.255 188.698 C 455.461 186.238 453.632 184.063 451.171 183.857 Z " fill="rgb(167,134,223)"/><path d=" M 565.406 127.224 C 565.406 127.224 565.406 127.224 565.402 127.219 C 564.564 126.408 563.456 125.964 562.291 125.964 C 561.063 125.964 559.915 126.448 559.063 127.331 C 558.234 128.192 557.786 129.326 557.808 130.523 C 557.826 131.72 558.31 132.836 559.171 133.665 C 559.171 133.665 559.171 133.67 559.175 133.67 C 560.014 134.481 561.121 134.929 562.286 134.929 C 563.515 134.929 564.662 134.441 565.514 133.558 C 567.226 131.783 567.181 128.945 565.406 127.224 Z " fill="rgb(167,134,223)"/></g></g><path d=" M 697.257 217.03 L 697.257 217.03 L 697.257 217.03 Q 677.299 217.03 665.259 201.736 L 665.259 201.736 L 665.259 201.736 Q 653.219 186.442 653.219 156.288 L 653.219 156.288 L 653.219 156.288 Q 653.219 141.319 657.124 129.93 L 657.124 129.93 L 657.124 129.93 Q 661.029 118.541 667.754 110.84 L 667.754 110.84 L 667.754 110.84 Q 674.479 103.139 683.59 99.342 L 683.59 99.342 L 683.59 99.342 Q 692.701 95.546 703.114 95.546 L 703.114 95.546 L 703.114 95.546 Q 711.141 95.546 718.191 98.041 L 718.191 98.041 L 718.191 98.041 Q 725.241 100.536 731.099 104.44 L 731.099 104.44 L 731.099 51.074 L 751.924 51.074 L 751.924 195.336 L 751.924 195.336 Q 751.924 198.807 753.551 200 L 753.551 200 L 753.551 200 Q 755.178 201.193 757.565 201.193 L 757.565 201.193 L 757.565 201.193 Q 759.3 201.193 761.253 200.651 L 761.253 200.651 L 761.253 200.651 Q 763.205 200.109 764.94 199.241 L 764.94 199.241 L 768.411 212.691 L 768.411 212.691 Q 764.94 214.426 760.819 215.728 L 760.819 215.728 L 760.819 215.728 Q 756.697 217.03 751.707 217.03 L 751.707 217.03 L 751.707 217.03 Q 744.332 217.03 739.125 213.667 L 739.125 213.667 L 739.125 213.667 Q 733.919 210.305 732.617 200.976 L 732.617 200.976 L 732.617 200.976 Q 726.326 207.484 717.649 212.257 L 717.649 212.257 L 717.649 212.257 Q 708.971 217.03 697.257 217.03 Z  M 701.812 200.109 L 701.812 200.109 L 701.812 200.109 Q 710.273 200.109 717.54 196.638 L 717.54 196.638 L 717.54 196.638 Q 724.808 193.167 731.099 187.526 L 731.099 187.526 L 731.099 121.578 L 731.099 121.578 Q 726.109 117.89 719.059 115.179 L 719.059 115.179 L 719.059 115.179 Q 712.008 112.467 703.982 112.467 L 703.982 112.467 L 703.982 112.467 Q 691.183 112.467 683.048 123.205 L 683.048 123.205 L 683.048 123.205 Q 674.912 133.943 674.912 156.288 L 674.912 156.288 L 674.912 156.288 Q 674.912 178.632 682.397 189.37 L 682.397 189.37 L 682.397 189.37 Q 689.881 200.109 701.812 200.109 Z  M 790.105 156.288 L 790.105 156.288 L 790.105 156.288 Q 790.105 141.319 794.118 129.93 L 794.118 129.93 L 794.118 129.93 Q 798.131 118.541 805.073 110.84 L 805.073 110.84 L 805.073 110.84 Q 812.015 103.139 821.669 99.342 L 821.669 99.342 L 821.669 99.342 Q 831.323 95.546 842.386 95.546 L 842.386 95.546 L 842.386 95.546 Q 853.45 95.546 863.104 99.342 L 863.104 99.342 L 863.104 99.342 Q 872.757 103.139 879.807 110.84 L 879.807 110.84 L 879.807 110.84 Q 886.858 118.541 890.871 129.93 L 890.871 129.93 L 890.871 129.93 Q 894.885 141.319 894.885 156.288 L 894.885 156.288 L 894.885 156.288 Q 894.885 171.256 890.871 182.645 L 890.871 182.645 L 890.871 182.645 Q 886.858 194.034 879.807 201.736 L 879.807 201.736 L 879.807 201.736 Q 872.757 209.437 863.104 213.233 L 863.104 213.233 L 863.104 213.233 Q 853.45 217.03 842.386 217.03 L 842.386 217.03 L 842.386 217.03 Q 831.323 217.03 821.669 213.233 L 821.669 213.233 L 821.669 213.233 Q 812.015 209.437 805.073 201.736 L 805.073 201.736 L 805.073 201.736 Q 798.131 194.034 794.118 182.645 L 794.118 182.645 L 794.118 182.645 Q 790.105 171.256 790.105 156.288 Z  M 811.798 156.288 L 811.798 156.288 L 811.798 156.288 Q 811.798 178.632 820.367 189.37 L 820.367 189.37 L 820.367 189.37 Q 828.936 200.109 842.386 200.109 L 842.386 200.109 L 842.386 200.109 Q 856.053 200.109 864.622 189.37 L 864.622 189.37 L 864.622 189.37 Q 873.191 178.632 873.191 156.288 L 873.191 156.288 L 873.191 156.288 Q 873.191 133.943 864.622 123.205 L 864.622 123.205 L 864.622 123.205 Q 856.053 112.467 842.386 112.467 L 842.386 112.467 L 842.386 112.467 Q 828.936 112.467 820.367 123.205 L 820.367 123.205 L 820.367 123.205 Q 811.798 133.943 811.798 156.288 Z  M 986.431 95.546 L 986.431 95.546 L 986.431 95.546 Q 996.41 95.546 1004.545 99.342 L 1004.545 99.342 L 1004.545 99.342 Q 1012.68 103.139 1018.429 110.84 L 1018.429 110.84 L 1018.429 110.84 Q 1024.178 118.541 1027.323 129.93 L 1027.323 129.93 L 1027.323 129.93 Q 1030.469 141.319 1030.469 156.288 L 1030.469 156.288 L 1030.469 156.288 Q 1030.469 171.256 1026.564 182.645 L 1026.564 182.645 L 1026.564 182.645 Q 1022.659 194.034 1015.934 201.736 L 1015.934 201.736 L 1015.934 201.736 Q 1009.209 209.437 1000.098 213.233 L 1000.098 213.233 L 1000.098 213.233 Q 990.987 217.03 980.574 217.03 L 980.574 217.03 L 980.574 217.03 Q 970.595 217.03 962.134 213.342 L 962.134 213.342 L 962.134 213.342 Q 953.674 209.654 947.166 204.013 L 947.166 204.013 L 941.742 213.776 L 931.763 213.776 L 931.763 51.074 L 952.589 51.074 L 952.589 110.081 L 952.589 110.081 Q 958.663 104.223 967.015 99.885 L 967.015 99.885 L 967.015 99.885 Q 975.367 95.546 986.431 95.546 Z  M 981.875 112.467 L 981.875 112.467 L 981.875 112.467 Q 973.198 112.467 965.931 115.938 L 965.931 115.938 L 965.931 115.938 Q 958.663 119.409 952.589 125.266 L 952.589 125.266 L 952.589 190.997 L 952.589 190.997 Q 957.579 194.902 964.521 197.505 L 964.521 197.505 L 964.521 197.505 Q 971.463 200.109 979.706 200.109 L 979.706 200.109 L 979.706 200.109 Q 992.505 200.109 1000.64 189.37 L 1000.64 189.37 L 1000.64 189.37 Q 1008.775 178.632 1008.775 156.288 L 1008.775 156.288 L 1008.775 156.288 Q 1008.775 133.943 1001.291 123.205 L 1001.291 123.205 L 1001.291 123.205 Q 993.807 112.467 981.875 112.467 Z  M 1060.84 156.288 L 1060.84 156.288 L 1060.84 156.288 Q 1060.84 141.319 1064.853 129.93 L 1064.853 129.93 L 1064.853 129.93 Q 1068.866 118.541 1075.808 110.84 L 1075.808 110.84 L 1075.808 110.84 Q 1082.75 103.139 1092.404 99.342 L 1092.404 99.342 L 1092.404 99.342 Q 1102.057 95.546 1113.121 95.546 L 1113.121 95.546 L 1113.121 95.546 Q 1124.185 95.546 1133.838 99.342 L 1133.838 99.342 L 1133.838 99.342 Q 1143.492 103.139 1150.542 110.84 L 1150.542 110.84 L 1150.542 110.84 Q 1157.593 118.541 1161.606 129.93 L 1161.606 129.93 L 1161.606 129.93 Q 1165.619 141.319 1165.619 156.288 L 1165.619 156.288 L 1165.619 156.288 Q 1165.619 171.256 1161.606 182.645 L 1161.606 182.645 L 1161.606 182.645 Q 1157.593 194.034 1150.542 201.736 L 1150.542 201.736 L 1150.542 201.736 Q 1143.492 209.437 1133.838 213.233 L 1133.838 213.233 L 1133.838 213.233 Q 1124.185 217.03 1113.121 217.03 L 1113.121 217.03 L 1113.121 217.03 Q 1102.057 217.03 1092.404 213.233 L 1092.404 213.233 L 1092.404 213.233 Q 1082.75 209.437 1075.808 201.736 L 1075.808 201.736 L 1075.808 201.736 Q 1068.866 194.034 1064.853 182.645 L 1064.853 182.645 L 1064.853 182.645 Q 1060.84 171.256 1060.84 156.288 Z  M 1082.533 156.288 L 1082.533 156.288 L 1082.533 156.288 Q 1082.533 178.632 1091.102 189.37 L 1091.102 189.37 L 1091.102 189.37 Q 1099.671 200.109 1113.121 200.109 L 1113.121 200.109 L 1113.121 200.109 Q 1126.788 200.109 1135.357 189.37 L 1135.357 189.37 L 1135.357 189.37 Q 1143.926 178.632 1143.926 156.288 L 1143.926 156.288 L 1143.926 156.288 Q 1143.926 133.943 1135.357 123.205 L 1135.357 123.205 L 1135.357 123.205 Q 1126.788 112.467 1113.121 112.467 L 1113.121 112.467 L 1113.121 112.467 Q 1099.671 112.467 1091.102 123.205 L 1091.102 123.205 L 1091.102 123.205 Q 1082.533 133.943 1082.533 156.288 Z  M 1202.498 98.8 L 1220.07 98.8 L 1221.155 112.25 L 1221.155 112.25 Q 1227.446 105.742 1236.015 100.644 L 1236.015 100.644 L 1236.015 100.644 Q 1244.583 95.546 1254.996 95.546 L 1254.996 95.546 L 1254.996 95.546 Q 1268.229 95.546 1276.256 99.885 L 1276.256 99.885 L 1276.256 99.885 Q 1284.283 104.223 1287.97 113.985 L 1287.97 113.985 L 1287.97 113.985 Q 1294.262 106.827 1303.264 101.186 L 1303.264 101.186 L 1303.264 101.186 Q 1312.267 95.546 1323.331 95.546 L 1323.331 95.546 L 1323.331 95.546 Q 1333.093 95.546 1340.143 97.932 L 1340.143 97.932 L 1340.143 97.932 Q 1347.194 100.319 1351.532 105.416 L 1351.532 105.416 L 1351.532 105.416 Q 1355.871 110.515 1357.932 118.758 L 1357.932 118.758 L 1357.932 118.758 Q 1359.993 127.002 1359.993 138.716 L 1359.993 138.716 L 1359.993 213.776 L 1339.167 213.776 L 1339.167 136.547 L 1339.167 136.547 Q 1339.167 112.467 1318.558 112.467 L 1318.558 112.467 L 1318.558 112.467 Q 1310.966 112.467 1304.024 116.046 L 1304.024 116.046 L 1304.024 116.046 Q 1297.082 119.626 1290.791 125.917 L 1290.791 125.917 L 1290.791 125.917 Q 1291.224 128.954 1291.441 131.991 L 1291.441 131.991 L 1291.441 131.991 Q 1291.658 135.028 1291.658 138.716 L 1291.658 138.716 L 1291.658 213.776 L 1270.833 213.776 L 1270.833 136.547 L 1270.833 136.547 Q 1270.833 112.467 1250.224 112.467 L 1250.224 112.467 L 1250.224 112.467 Q 1243.065 112.467 1236.232 115.938 L 1236.232 115.938 L 1236.232 115.938 Q 1229.398 119.409 1223.324 125.266 L 1223.324 125.266 L 1223.324 213.776 L 1202.498 213.776 L 1202.498 98.8 Z  M 64.675 95.546 L 64.675 95.546 L 64.675 95.546 Q 74.654 95.546 82.789 99.342 L 82.789 99.342 L 82.789 99.342 Q 90.924 103.139 96.673 110.84 L 96.673 110.84 L 96.673 110.84 Q 102.421 118.541 105.567 129.93 L 105.567 129.93 L 105.567 129.93 Q 108.712 141.319 108.712 156.288 L 108.712 156.288 L 108.712 156.288 Q 108.712 171.256 104.808 182.645 L 104.808 182.645 L 104.808 182.645 Q 100.903 194.034 94.178 201.736 L 94.178 201.736 L 94.178 201.736 Q 87.453 209.437 78.342 213.233 L 78.342 213.233 L 78.342 213.233 Q 69.23 217.03 58.817 217.03 L 58.817 217.03 L 58.817 217.03 Q 48.838 217.03 40.378 213.342 L 40.378 213.342 L 40.378 213.342 Q 31.918 209.654 25.409 204.013 L 25.409 204.013 L 19.986 213.776 L 10.007 213.776 L 10.007 51.074 L 30.833 51.074 L 30.833 110.081 L 30.833 110.081 Q 36.907 104.223 45.259 99.885 L 45.259 99.885 L 45.259 99.885 Q 53.611 95.546 64.675 95.546 Z  M 60.119 112.467 L 60.119 112.467 L 60.119 112.467 Q 51.442 112.467 44.174 115.938 L 44.174 115.938 L 44.174 115.938 Q 36.907 119.409 30.833 125.266 L 30.833 125.266 L 30.833 190.997 L 30.833 190.997 Q 35.822 194.902 42.764 197.505 L 42.764 197.505 L 42.764 197.505 Q 49.706 200.109 57.95 200.109 L 57.95 200.109 L 57.95 200.109 Q 70.749 200.109 78.884 189.37 L 78.884 189.37 L 78.884 189.37 Q 87.019 178.632 87.019 156.288 L 87.019 156.288 L 87.019 156.288 Q 87.019 133.943 79.535 123.205 L 79.535 123.205 L 79.535 123.205 Q 72.05 112.467 60.119 112.467 Z  M 139.083 156.288 L 139.083 156.288 L 139.083 156.288 Q 139.083 141.319 143.097 129.93 L 143.097 129.93 L 143.097 129.93 Q 147.11 118.541 154.052 110.84 L 154.052 110.84 L 154.052 110.84 Q 160.994 103.139 170.647 99.342 L 170.647 99.342 L 170.647 99.342 Q 180.301 95.546 191.365 95.546 L 191.365 95.546 L 191.365 95.546 Q 202.428 95.546 212.082 99.342 L 212.082 99.342 L 212.082 99.342 Q 221.736 103.139 228.786 110.84 L 228.786 110.84 L 228.786 110.84 Q 235.836 118.541 239.85 129.93 L 239.85 129.93 L 239.85 129.93 Q 243.863 141.319 243.863 156.288 L 243.863 156.288 L 243.863 156.288 Q 243.863 171.256 239.85 182.645 L 239.85 182.645 L 239.85 182.645 Q 235.836 194.034 228.786 201.736 L 228.786 201.736 L 228.786 201.736 Q 221.736 209.437 212.082 213.233 L 212.082 213.233 L 212.082 213.233 Q 202.428 217.03 191.365 217.03 L 191.365 217.03 L 191.365 217.03 Q 180.301 217.03 170.647 213.233 L 170.647 213.233 L 170.647 213.233 Q 160.994 209.437 154.052 201.736 L 154.052 201.736 L 154.052 201.736 Q 147.11 194.034 143.097 182.645 L 143.097 182.645 L 143.097 182.645 Q 139.083 171.256 139.083 156.288 Z  M 160.777 156.288 L 160.777 156.288 L 160.777 156.288 Q 160.777 178.632 169.346 189.37 L 169.346 189.37 L 169.346 189.37 Q 177.915 200.109 191.365 200.109 L 191.365 200.109 L 191.365 200.109 Q 205.032 200.109 213.6 189.37 L 213.6 189.37 L 213.6 189.37 Q 222.169 178.632 222.169 156.288 L 222.169 156.288 L 222.169 156.288 Q 222.169 133.943 213.6 123.205 L 213.6 123.205 L 213.6 123.205 Q 205.032 112.467 191.365 112.467 L 191.365 112.467 L 191.365 112.467 Q 177.915 112.467 169.346 123.205 L 169.346 123.205 L 169.346 123.205 Q 160.777 133.943 160.777 156.288 Z  M 270.98 113.985 L 270.98 98.8 L 287.467 98.8 L 287.467 74.937 L 303.954 70.598 L 308.293 70.598 L 308.293 98.8 L 338.663 98.8 L 338.663 113.985 L 308.293 113.985 L 308.293 189.045 L 308.293 189.045 Q 308.293 199.458 318.488 199.458 L 318.488 199.458 L 318.488 199.458 Q 325.214 199.458 335.193 193.384 L 335.193 193.384 L 340.833 206.4 L 340.833 206.4 Q 334.325 211.389 326.19 214.209 L 326.19 214.209 L 326.19 214.209 Q 318.055 217.03 310.896 217.03 L 310.896 217.03 L 310.896 217.03 Q 299.398 217.03 293.432 209.328 L 293.432 209.328 L 293.432 209.328 Q 287.467 201.627 287.467 186.876 L 287.467 186.876 L 287.467 113.985 L 270.98 113.985 Z " fill="rgb(14,23,44)"/></g></g></g></g></svg>