<?xml version="1.0" encoding="UTF-8" standalone="no"?><!-- Generator: Gravit.io --><svg xmlns="http://www.w3.org/2000/svg" xmlns:xlink="http://www.w3.org/1999/xlink" style="isolation:isolate" viewBox="0 0 1800 1100" width="1800pt" height="1100pt"><defs><clipPath id="_clipPath_ErqzlWhFNM8mxqdjtykQesKaeTPpfgFJ"><rect width="1800" height="1100"/></clipPath></defs><g clip-path="url(#_clipPath_ErqzlWhFNM8mxqdjtykQesKaeTPpfgFJ)"><rect width="1800" height="1100" style="fill:rgb(254,199,215)" fill-opacity="0"/><g><g><path d=" M 923.593 255.255 L 570.019 255.255 C 566.404 255.251 563.475 252.322 563.471 248.707 L 563.471 161.001 C 563.475 157.386 566.404 154.457 570.019 154.453 L 923.593 154.453 C 927.207 154.457 930.136 157.386 930.141 161.001 L 930.141 248.707 C 930.136 252.322 927.207 255.251 923.593 255.255 L 923.593 255.255 Z  M 570.019 157.072 C 567.85 157.074 566.092 158.832 566.09 161.001 L 566.09 248.707 C 566.092 250.876 567.85 252.633 570.019 252.636 L 923.593 252.636 C 925.762 252.633 927.519 250.876 927.522 248.707 L 927.522 161.001 C 927.519 158.832 925.762 157.074 923.593 157.072 L 570.019 157.072 Z " fill="rgb(63,61,86)"/><circle vector-effect="non-scaling-stroke" cx="624.9569418843997" cy="201.48856434837177" r="26.67171381844446" fill="rgb(167,134,223)"/><path d=" M 686.556 183.707 C 684.101 183.707 682.111 185.698 682.111 188.153 C 682.111 190.608 684.101 192.598 686.556 192.598 L 896.119 192.598 C 898.574 192.598 900.565 190.608 900.565 188.153 C 900.565 185.698 898.574 183.707 896.119 183.707 L 686.556 183.707 Z " fill="rgb(230,230,230)"/><path d=" M 686.556 210.379 C 684.101 210.379 682.111 212.369 682.111 214.824 C 682.111 217.279 684.101 219.27 686.556 219.27 L 776.732 219.27 C 778.322 219.273 779.792 218.426 780.588 217.049 C 781.384 215.673 781.384 213.976 780.588 212.599 C 779.792 211.223 778.322 210.376 776.732 210.379 L 686.556 210.379 Z " fill="rgb(230,230,230)"/><path d=" M 770.092 567.889 L 612.948 567.889 C 609.333 567.885 606.404 564.956 606.4 561.341 L 606.4 397.682 C 606.404 394.067 609.333 391.138 612.948 391.134 L 770.092 391.134 C 773.707 391.138 776.636 394.067 776.64 397.682 L 776.64 561.341 C 776.636 564.956 773.707 567.885 770.092 567.889 L 770.092 567.889 Z  M 612.948 393.753 C 610.779 393.756 609.022 395.513 609.019 397.682 L 609.019 561.341 C 609.022 563.51 610.779 565.268 612.948 565.27 L 770.092 565.27 C 772.261 565.268 774.019 563.51 774.021 561.341 L 774.021 397.682 C 774.019 395.513 772.261 393.756 770.092 393.753 L 612.948 393.753 Z " fill="rgb(63,61,86)"/><path d=" M 646.432 424.884 C 643.977 424.884 641.987 426.874 641.987 429.329 C 641.987 431.784 643.977 433.774 646.432 433.774 L 736.608 433.774 C 739.063 433.774 741.053 431.784 741.053 429.329 C 741.053 426.874 739.063 424.884 736.608 424.884 L 646.432 424.884 Z " fill="rgb(230,230,230)"/><path d=" M 646.432 451.074 C 644.842 451.071 643.372 451.918 642.576 453.295 C 641.78 454.671 641.78 456.368 642.576 457.745 C 643.372 459.121 644.842 459.968 646.432 459.965 L 736.608 459.965 C 739.063 459.965 741.053 457.975 741.053 455.52 C 741.053 453.065 739.063 451.074 736.608 451.074 L 646.432 451.074 Z " fill="rgb(230,230,230)"/><path d=" M 691.52 534.139 C 680.203 534.139 670 527.322 665.669 516.866 C 661.338 506.41 663.732 494.375 671.735 486.373 C 679.737 478.37 691.773 475.976 702.228 480.307 C 712.684 484.638 719.502 494.841 719.501 506.159 C 719.484 521.605 706.967 534.122 691.52 534.139 L 691.52 534.139 Z " fill="rgb(167,134,223)"/><path d=" M 1036.838 78.5 L 1193.982 78.5 C 1197.597 78.504 1200.526 81.433 1200.53 85.048 L 1200.53 248.707 C 1200.526 252.322 1197.597 255.251 1193.982 255.255 L 1036.838 255.255 C 1033.224 255.251 1030.295 252.322 1030.29 248.707 L 1030.29 85.048 C 1030.295 81.433 1033.224 78.504 1036.838 78.5 Z  M 1193.982 252.636 C 1196.151 252.633 1197.909 250.876 1197.911 248.707 L 1197.911 85.048 C 1197.909 82.879 1196.151 81.121 1193.982 81.119 L 1036.838 81.119 C 1034.669 81.121 1032.912 82.879 1032.909 85.048 L 1032.909 248.707 C 1032.912 250.876 1034.669 252.633 1036.838 252.636 L 1193.982 252.636 Z " fill="rgb(63,61,86)"/><path d=" M 1160.498 221.505 C 1162.086 221.505 1163.554 220.658 1164.348 219.283 C 1165.142 217.907 1165.142 216.213 1164.348 214.837 C 1163.554 213.462 1162.086 212.615 1160.498 212.615 L 1070.322 212.615 C 1068.734 212.615 1067.267 213.462 1066.473 214.837 C 1065.679 216.213 1065.679 217.907 1066.473 219.283 C 1067.267 220.658 1068.734 221.505 1070.322 221.505 L 1160.498 221.505 Z " fill="rgb(230,230,230)"/><path d=" M 1160.498 195.315 C 1162.086 195.315 1163.554 194.467 1164.348 193.092 C 1165.142 191.717 1165.142 190.022 1164.348 188.647 C 1163.554 187.271 1162.086 186.424 1160.498 186.424 L 1070.322 186.424 C 1068.734 186.424 1067.267 187.271 1066.473 188.647 C 1065.679 190.022 1065.679 191.717 1066.473 193.092 C 1067.267 194.467 1068.734 195.315 1070.322 195.315 L 1160.498 195.315 Z " fill="rgb(230,230,230)"/><path d=" M 1115.41 112.25 C 1126.727 112.25 1136.93 119.067 1141.261 129.523 C 1145.592 139.979 1143.198 152.014 1135.195 160.016 C 1127.193 168.019 1115.158 170.413 1104.702 166.082 C 1094.246 161.751 1087.429 151.548 1087.429 140.231 C 1087.446 124.784 1099.964 112.267 1115.41 112.25 L 1115.41 112.25 Z " fill="rgb(167,134,223)"/><path d=" M 565.49 362.983 C 593.298 341.445 625.787 326.759 660.326 320.112 C 695.139 313.478 731.038 315.322 764.989 325.49 C 782.055 330.571 798.452 337.676 813.831 346.653 C 829.501 355.813 843.659 367.089 857.282 379.029 C 871.083 391.123 884.429 403.756 898.836 415.143 C 939.966 448.019 991.026 465.981 1043.681 466.096 Q 1050.206 466.107 1056.721 465.737 C 1059.076 465.607 1059.091 461.927 1056.721 462.057 C 1003.049 465.013 950.046 448.997 906.992 416.813 C 892.06 405.647 878.426 392.881 864.508 380.51 C 851.014 368.516 837.158 356.849 821.848 347.213 C 745.293 298.984 647.316 301.217 573.038 352.884 C 569.583 355.286 566.209 357.797 562.888 360.381 C 561.022 361.834 563.643 364.421 565.49 362.983 L 565.49 362.983 Z " fill="rgb(63,61,86)"/><circle vector-effect="non-scaling-stroke" cx="563.5367655740739" cy="361.64605604322566" r="19.12255808660825" fill="rgb(63,61,86)"/><circle vector-effect="non-scaling-stroke" cx="1274.934661856527" cy="615.541507447952" r="19.12255808660825" fill="rgb(63,61,86)"/><path d=" M 1031.208 678.475 L 883.793 678.475 L 918.485 618.386 C 919.75 616.194 922.089 614.843 924.62 614.843 C 927.151 614.843 929.49 616.194 930.755 618.386 L 945.575 644.055 L 970.774 600.409 C 972.358 597.665 975.286 595.974 978.455 595.974 C 981.624 595.974 984.552 597.665 986.137 600.409 L 1031.208 678.475 Z " fill="rgb(167,134,223)"/><path d=" M 1375.113 506.61 L 1063.091 506.61 C 1059.477 506.606 1056.548 503.677 1056.543 500.063 L 1056.543 337.713 C 1056.548 334.098 1059.477 331.169 1063.091 331.165 L 1375.113 331.165 C 1378.728 331.169 1381.657 334.098 1381.661 337.712 L 1381.661 500.062 C 1381.657 503.677 1378.728 506.606 1375.113 506.61 L 1375.113 506.61 Z  M 1063.091 333.784 C 1060.922 333.786 1059.165 335.544 1059.163 337.713 L 1059.163 500.062 C 1059.165 502.231 1060.922 503.989 1063.091 503.991 L 1375.113 503.991 C 1377.282 503.989 1379.04 502.231 1379.042 500.062 L 1379.042 337.713 C 1379.04 335.544 1377.282 333.786 1375.113 333.784 L 1063.091 333.784 Z " fill="rgb(63,61,86)"/><circle vector-effect="non-scaling-stroke" cx="1115.4102163954371" cy="388.6768096802194" r="26.67171381844446" fill="rgb(167,134,223)"/><path d=" M 1177.009 370.896 C 1175.419 370.893 1173.949 371.739 1173.153 373.116 C 1172.357 374.493 1172.357 376.189 1173.153 377.566 C 1173.949 378.943 1175.419 379.789 1177.009 379.786 L 1345.021 379.786 C 1347.476 379.786 1349.466 377.796 1349.466 375.341 C 1349.466 372.886 1347.476 370.896 1345.021 370.896 L 1177.009 370.896 Z " fill="rgb(230,230,230)"/><path d=" M 1031.347 678.458 L 874.203 678.458 C 870.588 678.454 867.659 675.525 867.655 671.911 L 867.655 584.204 C 867.659 580.59 870.588 577.661 874.203 577.656 L 1031.347 577.656 C 1034.962 577.661 1037.891 580.59 1037.895 584.204 L 1037.895 671.911 C 1037.891 675.525 1034.962 678.454 1031.347 678.458 L 1031.347 678.458 Z  M 874.203 580.276 C 872.034 580.278 870.276 582.035 870.274 584.204 L 870.274 671.911 C 870.276 674.08 872.034 675.837 874.203 675.839 L 1031.347 675.839 C 1033.516 675.837 1035.273 674.08 1035.276 671.911 L 1035.276 584.204 C 1035.273 582.035 1033.516 580.278 1031.347 580.276 L 874.203 580.276 Z " fill="rgb(63,61,86)"/><path d=" M 1177.009 397.567 C 1175.419 397.564 1173.949 398.411 1173.153 399.788 C 1172.357 401.164 1172.357 402.861 1173.153 404.238 C 1173.949 405.614 1175.419 406.461 1177.009 406.458 L 1267.185 406.458 C 1269.64 406.458 1271.63 404.468 1271.63 402.013 C 1271.63 399.558 1269.64 397.567 1267.185 397.567 L 1177.009 397.567 Z " fill="rgb(230,230,230)"/><path d=" M 1094.952 440.208 C 1091.571 440.208 1088.819 442.202 1088.819 444.653 C 1088.819 447.104 1091.571 449.098 1094.952 449.098 L 1342.533 449.098 C 1345.915 449.098 1348.666 447.104 1348.666 444.653 C 1348.666 442.202 1345.915 440.208 1342.533 440.208 L 1094.952 440.208 Z " fill="rgb(230,230,230)"/><path d=" M 1094.952 466.879 C 1091.571 466.879 1088.819 468.874 1088.819 471.325 C 1088.819 473.776 1091.571 475.77 1094.952 475.77 L 1342.533 475.77 C 1345.915 475.77 1348.666 473.776 1348.666 471.325 C 1348.666 468.874 1345.915 466.879 1342.533 466.879 L 1094.952 466.879 Z " fill="rgb(230,230,230)"/><path d=" M 1038.009 633.344 C 1055.612 625.708 1075.266 632.365 1091.857 639.404 C 1100.403 643.028 1108.856 646.897 1117.699 649.76 C 1125.139 652.161 1132.758 653.967 1140.484 655.159 C 1155.988 657.534 1171.756 657.63 1187.289 655.446 C 1202.899 653.269 1218.113 648.845 1232.458 642.311 C 1246.722 635.847 1259.907 627.226 1271.55 616.753 Q 1273.772 614.746 1275.907 612.647 C 1277.602 610.987 1274.999 608.386 1273.305 610.045 C 1262.093 620.974 1249.222 630.061 1235.17 636.966 C 1221.175 643.848 1206.247 648.644 1190.862 651.2 C 1175.427 653.803 1159.689 654.074 1144.173 652.006 C 1136.433 650.959 1128.788 649.298 1121.312 647.036 C 1112.725 644.244 1104.302 640.972 1096.081 637.237 C 1079.334 630.045 1060.727 623.002 1042.326 627.963 C 1040.217 628.546 1038.153 629.282 1036.152 630.167 C 1033.985 631.107 1035.857 634.278 1038.009 633.344 L 1038.009 633.344 Z " fill="rgb(63,61,86)"/></g><g><g><g><g><path d=" M 315.696 310.529 C 304.094 302.534 294.718 291.438 291.904 276.943 C 283.796 235.18 343.276 228.907 359.919 246.623 C 376.563 264.338 389.306 317.172 375.951 324.714 C 370.625 327.722 357.47 327.375 343.063 323.222 L 365.607 376.218 L 319.635 388.536 L 315.696 310.529 Z " fill-rule="evenodd" fill="rgb(145,91,60)"/></g><path d=" M 366.749 254.75 C 365.575 252.19 363.664 249.51 362.086 247.213 C 360.052 244.253 357.509 241.773 354.837 239.51 C 349.805 235.25 344.184 231.692 338.325 229.058 C 327.623 224.248 315.337 223.111 304.703 227.399 C 299.334 229.563 294.513 233.124 290.871 237.877 C 287.581 242.172 284.851 247.927 279.576 249.701 C 273.836 251.631 267.104 247.913 261.57 245.985 C 255.329 243.811 249.013 242.702 242.571 243.339 C 231.779 244.407 223.005 250.501 218.154 260.889 C 212.991 271.944 211.027 286.655 219.209 297.278 C 220.73 299.252 222.422 300.807 224.547 301.902 C 226.495 302.907 229.294 303.781 230.539 305.886 C 231.862 308.124 230.682 311.785 230.486 314.176 C 230.204 317.603 230.164 321.132 231.401 324.443 C 233.434 329.881 238.369 334.269 243.056 336.946 C 247.826 339.669 253.038 340.567 258.257 340.226 C 261.742 339.998 265.221 339.456 268.517 338.307 C 270.154 337.737 271.502 336.879 273.021 336.077 C 274.497 335.297 275.488 335.479 277.054 335.984 C 284.326 338.33 291.407 338.095 298.404 335.581 C 304.31 333.459 310.881 330.13 314.699 324.671 C 318.94 318.608 317.133 312.298 314.03 305.871 C 315.576 306.181 319.463 305.589 316.485 303.498 C 315.305 302.67 313.501 302.688 312.186 302.367 C 310.655 301.994 309.047 301.412 307.691 300.498 C 302.215 296.804 303.817 285.873 308.645 282.849 C 315.818 278.356 320.53 288.941 326.876 290.305 C 330.525 291.089 333.279 287.943 335.067 285.005 C 337.464 281.068 338.567 276.408 339.351 271.757 C 339.997 267.926 340.522 264.077 341.203 260.255 C 341.521 258.47 342.891 253.299 341.119 251.852 C 346.419 249.235 353.277 249.891 358.916 251.65 C 361.247 252.377 363.139 253.361 364.799 255.302 C 365.154 255.719 366.03 257.004 366.668 256.895 C 367.856 256.693 367.043 255.393 366.749 254.75 Z " fill-rule="evenodd" fill="rgb(25,24,71)"/></g><g><path d=" M 269.118 742.061 C 316.691 755.367 357.735 762.02 392.251 762.02 C 426.767 762.02 458.827 751.774 488.431 731.283 C 441.877 717.626 403.537 710.797 373.412 710.797 C 343.288 710.797 308.523 721.218 269.118 742.061 Z " fill-rule="evenodd" fill="rgb(170,157,12)"/><path d=" M 433.434 781.199 C 432.975 780.51 432.588 779.76 432.28 778.947 C 425.921 762.13 324.067 580.713 313.92 547.545 L 428.594 547.545 C 436.309 572.763 471.033 731.018 475.92 762.593 C 491.339 812.398 523.086 973.698 527.138 984.873 C 531.402 996.628 507.413 1008.874 501.021 994.422 C 490.849 971.427 466.614 907.801 455.823 868.95 C 445.707 832.528 437.469 799.761 433.434 781.199 Z " fill-rule="evenodd" fill="rgb(145,91,60)"/><path d=" M 339.615 803.349 C 293.049 815.118 122.72 836.395 111.031 839.732 C 99.007 843.165 88.464 818.381 103.327 813.012 C 126.975 804.47 192.138 784.732 231.646 776.677 C 263.424 770.199 292.422 764.912 311.89 761.816 C 310.241 707.13 302.701 575.89 307.643 547.545 L 409.108 547.545 C 404.369 574.726 364.31 773.056 356.865 792.908 C 354.502 799.995 347.452 803.127 339.615 803.349 Z " fill-rule="evenodd" fill="rgb(145,91,60)"/><g><path d=" M 104.406 806.413 C 98.188 805.257 93.632 804.934 90.736 805.444 C 87.214 806.065 82.179 807.558 75.629 809.923 C 76.349 814.008 82.824 850.725 95.051 920.073 C 105.019 921.267 109.837 918.713 109.504 912.413 C 109.171 906.113 108.949 900.87 108.838 896.684 L 122.634 841.463 C 122.899 840.4 122.253 839.323 121.191 839.058 C 121.172 839.053 121.154 839.049 121.136 839.045 L 112.573 837.162 C 108.902 831.922 106.752 827.518 106.123 823.949 C 105.612 821.049 106.077 816.837 107.518 811.314 L 107.518 811.314 C 108.071 809.195 106.802 807.028 104.682 806.475 C 104.591 806.451 104.499 806.431 104.406 806.413 Z " fill-rule="evenodd" fill="rgb(0,0,0)"/></g><g><path d=" M 493.742 992.551 C 491.523 998.473 490.414 1002.905 490.414 1005.845 C 490.414 1009.421 491.01 1014.639 492.201 1021.5 C 496.35 1021.5 533.633 1021.5 604.05 1021.5 C 606.957 1011.891 605.279 1006.703 599.017 1005.937 C 592.754 1005.171 587.552 1004.479 583.41 1003.862 L 531.424 980.686 C 530.424 980.24 529.251 980.69 528.805 981.69 C 528.798 981.707 528.79 981.724 528.783 981.742 L 525.441 989.848 C 519.644 992.552 514.933 993.905 511.309 993.905 C 508.364 993.905 504.297 992.715 499.109 990.337 L 499.109 990.337 C 497.117 989.424 494.763 990.298 493.85 992.289 C 493.811 992.375 493.775 992.462 493.742 992.551 Z " fill-rule="evenodd" fill="rgb(0,0,0)"/></g><path d=" M 307.971 547.545 C 352.683 534.752 394.989 534.752 434.888 547.545 C 448.769 610.879 482.499 636.017 488.431 733.119 C 421.006 766.621 337.717 709.226 268.309 741.897 C 248.479 696.198 276.242 586.144 307.971 547.545 Z " fill-rule="evenodd" fill="rgb(249,229,0)"/></g><g><path d=" M 413.726 416.902 L 474.966 367.823 C 483.878 352.449 493.151 340.095 502.786 330.759 C 505.883 328.774 511.58 326.899 507.824 337.567 C 504.068 348.235 500.597 359.625 503.909 362.123 C 507.222 364.622 513.431 359.221 517.63 363.602 C 520.429 366.523 509.485 373.846 484.799 385.572 L 443.496 439.356 L 413.726 416.902 Z  M 525.415 429.507 L 552.307 407.899 C 553.682 391.265 557.265 382.386 563.058 381.262 C 567.156 378.398 562.924 399.856 571.079 396.622 C 579.234 393.388 597.178 374.386 601.286 376.878 C 607.364 380.563 605.168 395.558 600.88 403.581 C 592.865 418.576 585.1 424.589 564.986 434.218 C 554.469 439.252 543.6 447.542 532.38 459.089 L 525.415 429.507 Z " fill-rule="evenodd" fill="rgb(145,91,60)"/><path d=" M 379.255 414.453 C 402.954 410.015 433.731 399.418 463.733 372.017 L 482.218 399.264 C 462.993 426.499 433.577 451.278 404.785 455.525 C 382.096 458.872 365.741 433.597 379.255 414.453 Z " fill-rule="evenodd" fill="rgb(200,9,111)"/><path d=" M 419.592 456.264 C 445.906 458.106 486.869 443.239 542.478 411.664 C 562.564 439.516 573.194 460.023 574.37 473.184 C 528.16 508.746 486.625 528.292 450.823 535.412 C 455.725 556.537 456.707 577.287 451.257 597.366 C 440.052 638.645 328.857 621.852 294.788 635.024 C 260.029 567.141 297.62 530.435 289.556 484.5 C 280.725 434.196 307.46 349.655 313.402 348.608 L 367.59 339.053 C 377.353 376.938 399.867 416.619 419.592 456.264 Z " fill-rule="evenodd" fill="rgb(229,0,121)"/></g></g></g><g><g><g><g><path d=" M 1503.9 317.321 C 1512.186 307.596 1517.793 295.677 1516.856 282.322 C 1514.156 243.841 1460.591 252.307 1450.171 271.728 C 1439.751 291.15 1440.99 340.414 1454.456 343.885 C 1459.826 345.269 1471.267 341.878 1482.911 334.86 L 1475.602 386.565 L 1518.756 386.565 L 1503.9 317.321 Z " fill-rule="evenodd" fill="rgb(178,139,103)"/></g><path d=" M 1431.053 244.804 C 1431.947 241.663 1434.35 238.974 1437.59 238.176 C 1438.375 237.982 1439.186 237.904 1439.995 237.937 C 1440.285 237.948 1440.366 238.032 1440.501 237.829 C 1440.602 237.679 1440.604 237.311 1440.646 237.135 C 1440.774 236.586 1440.935 236.043 1441.134 235.515 C 1441.812 233.712 1442.951 232.117 1444.324 230.774 C 1446.892 228.26 1450.362 226.525 1453.968 226.211 C 1455.941 226.039 1457.9 226.36 1459.765 227.002 C 1460.731 227.334 1461.668 227.748 1462.58 228.205 C 1462.855 228.343 1463.746 229.017 1464.021 228.974 C 1464.326 228.925 1464.937 228.169 1465.185 227.979 C 1468.244 225.632 1472.022 224.709 1475.833 224.737 C 1480.134 224.769 1484.275 224.984 1487.862 227.606 C 1488.622 228.161 1489.345 228.769 1490.033 229.409 C 1490.396 229.746 1490.747 230.095 1491.082 230.459 C 1491.284 230.679 1491.481 230.904 1491.671 231.134 C 1491.992 231.526 1491.94 231.654 1492.39 231.381 C 1494.117 230.332 1496.117 229.842 1498.132 230.089 C 1499.329 230.236 1500.493 230.596 1501.598 231.068 C 1501.975 231.229 1502.846 231.871 1503.247 231.878 C 1503.645 231.884 1504.504 231.289 1504.913 231.137 C 1507.127 230.32 1509.514 230.119 1511.841 230.496 C 1514.241 230.886 1516.599 231.844 1518.633 233.167 C 1519.611 233.804 1520.464 234.509 1521.15 235.456 C 1521.446 235.864 1521.713 236.297 1522.049 236.675 C 1522.245 236.897 1522.634 237.125 1522.739 237.406 C 1522.676 237.238 1525.364 236.201 1525.618 236.135 C 1526.969 235.782 1528.346 235.854 1529.669 236.289 C 1532.157 237.108 1534.297 238.945 1536.056 240.827 C 1536.959 241.795 1537.75 242.864 1538.421 244.003 C 1538.743 244.548 1539.037 245.109 1539.306 245.682 C 1539.436 245.96 1539.523 246.307 1539.694 246.557 C 1539.916 246.88 1540.064 246.886 1540.466 247.026 C 1542.502 247.74 1544.359 248.947 1545.772 250.579 C 1547.202 252.23 1548.13 254.263 1548.519 256.404 C 1548.542 256.53 1548.556 257.053 1548.63 257.121 C 1548.731 257.215 1549.14 257.174 1549.295 257.192 C 1549.832 257.255 1550.364 257.348 1550.89 257.473 C 1551.859 257.702 1552.802 258.04 1553.694 258.481 C 1557.172 260.202 1559.659 263.427 1560.876 267.057 C 1562.153 270.866 1562.13 275.23 1560.604 278.968 C 1560.357 279.572 1560.064 280.158 1559.719 280.712 C 1559.508 281.053 1559.439 281.054 1559.577 281.411 C 1559.73 281.808 1560.01 282.194 1560.192 282.582 C 1560.785 283.849 1561.2 285.192 1561.462 286.564 C 1561.891 288.815 1562.104 291.181 1561.68 293.448 C 1561.483 294.502 1561.14 295.531 1560.617 296.469 C 1560.35 296.947 1560.038 297.401 1559.686 297.82 C 1559.502 298.038 1559.308 298.246 1559.105 298.446 C 1558.989 298.559 1558.836 298.659 1558.737 298.786 C 1558.496 299.096 1558.445 298.841 1558.57 299.297 C 1558.744 299.933 1559.138 300.561 1559.38 301.181 C 1559.629 301.819 1559.854 302.466 1560.059 303.12 C 1560.476 304.443 1560.829 305.79 1561.049 307.161 C 1561.472 309.792 1561.398 312.595 1560.153 315.01 C 1559.621 316.043 1558.858 316.949 1557.932 317.654 C 1557.479 317.998 1556.988 318.296 1556.473 318.54 C 1556.208 318.665 1555.871 318.719 1555.75 318.975 C 1555.62 319.25 1555.813 319.797 1555.857 320.104 C 1556.239 322.78 1556.431 325.59 1555.636 328.212 C 1554.903 330.628 1553.29 332.76 1551.196 334.172 C 1547.133 336.911 1541.656 336.757 1537.387 334.564 C 1536.274 333.993 1535.233 333.283 1534.304 332.446 C 1531.939 335.629 1527.073 335.529 1523.616 334.621 C 1519.31 333.491 1515.855 330.497 1513.864 326.563 C 1511.142 329.877 1505.429 328.802 1503.541 325.207 C 1503.079 324.327 1502.805 323.357 1502.67 322.376 C 1502.599 321.86 1502.645 321.339 1502.591 320.827 C 1502.523 320.175 1502.087 319.541 1501.837 318.91 C 1501.349 317.682 1501.046 316.414 1501.033 315.089 C 1501.027 314.397 1501.114 313.723 1501.18 313.037 C 1501.239 312.42 1501.068 311.844 1500.971 311.235 C 1502.075 311.416 1503.42 311.119 1504.461 310.798 C 1505.482 310.484 1506.438 309.657 1507.159 308.901 C 1508.832 307.145 1509.855 304.845 1510.554 302.555 C 1512.088 297.528 1511.459 291.498 1506.404 288.74 C 1504.049 287.455 1496.993 287.459 1494.188 288.094 C 1491.239 288.762 1487.896 295.27 1487.731 295.881 C 1487.629 296.26 1487.681 296.728 1487.333 296.981 C 1486.568 297.535 1485.308 296.573 1484.744 296.098 C 1483.771 295.278 1483.077 294.187 1482.476 293.081 C 1481.167 290.672 1480.111 288.089 1479.366 285.452 C 1478.791 283.419 1478.423 281.322 1477.672 279.341 C 1476.924 277.369 1475.745 275.607 1473.913 274.49 C 1471.919 273.275 1469.634 272.635 1467.445 271.872 C 1465.276 271.115 1463.144 270.19 1461.462 268.585 C 1461.092 268.232 1460.733 267.856 1460.436 267.441 C 1460.201 267.113 1459.968 266.484 1459.61 266.276 C 1459.054 265.953 1458.242 266.794 1457.76 267.1 C 1455.386 268.608 1453.405 270.711 1451.808 273.008 C 1450.219 275.293 1448.915 277.492 1447.856 280.043 C 1447.07 281.936 1446.58 284.359 1445.198 285.91 C 1444.581 286.602 1439.995 287.021 1438.509 286.417 C 1437.024 285.812 1435.359 284.243 1434.86 283.259 C 1434.35 282.252 1434.228 281.146 1434.446 280.043 C 1434.574 279.395 1434.836 278.789 1434.98 278.152 C 1435.1 277.617 1435.21 277.111 1435.47 276.621 C 1435.964 275.692 1436.807 275.025 1437.824 274.746 C 1436.766 273.77 1435.889 272.603 1435.282 271.298 C 1434.652 269.942 1434.117 268.294 1433.966 266.806 C 1433.842 265.597 1434.033 264.345 1434.694 263.307 C 1435.388 262.217 1436.618 261.506 1437.681 260.827 C 1436.056 259.556 1434.666 258.009 1433.522 256.298 C 1431.299 252.969 1429.924 248.773 1431.053 244.804 Z " fill-rule="evenodd" fill="rgb(25,24,71)"/></g><g><path d=" M 1533.007 535.363 L 1446.551 764.129 L 1385.953 932.742 L 1351.399 932.742 L 1434.698 535.363 L 1533.007 535.363 Z " fill-rule="evenodd" fill="rgb(219,202,16)"/><path d=" M 1554.374 535.363 C 1555.314 613.857 1554.635 719.537 1556.824 724.43 C 1558.284 727.692 1603.688 764.858 1693.037 835.928 L 1675.227 866.213 C 1569.15 797.805 1513.399 759.045 1507.976 749.931 C 1499.841 736.26 1458.971 610.457 1437.708 535.363 L 1554.374 535.363 Z " fill-rule="evenodd" fill="rgb(249,229,0)"/><g><path d=" M 1724.371 856.308 L 1694.289 833.413 L 1670.018 862.339 C 1668.151 884.146 1660.931 908.602 1648.358 935.707 L 1653.867 940.33 L 1697.788 887.988 L 1710.058 867.77 L 1712.813 870.082 L 1724.371 856.308 Z " fill-rule="evenodd" fill="rgb(25,24,71)"/></g><g><path d=" M 1389.159 965.108 L 1387.361 927.348 L 1349.601 927.348 C 1331.696 939.935 1308.321 950.124 1279.475 957.915 L 1279.475 965.108 L 1347.803 965.108 L 1371.178 961.512 L 1371.178 965.108 L 1389.159 965.108 Z " fill-rule="evenodd" fill="rgb(25,24,71)"/></g></g><g><path d=" M 1380.598 512.617 L 1323.242 554.735 C 1307.686 558.933 1294.689 564.156 1284.252 570.403 C 1281.786 572.65 1278.807 577.199 1289.032 576.413 C 1299.256 575.627 1310.047 575.259 1311.457 578.747 C 1312.868 582.234 1306.681 586.405 1309.533 591.111 C 1311.434 594.248 1320.416 586.382 1336.48 567.513 L 1393.277 543.96 L 1380.598 512.617 Z  M 1600.817 514.071 L 1563.241 514.219 C 1586.443 589.116 1598.968 628.856 1600.817 633.439 C 1604.978 643.75 1596.173 659.454 1592.408 667.893 C 1604.671 673.381 1603.364 653.059 1618.834 660.256 C 1632.954 666.825 1643.695 678.727 1660.008 668.662 C 1662.014 667.424 1664.212 662.764 1658.901 659.123 C 1645.672 650.052 1626.606 634.175 1624.03 628.949 C 1620.517 621.822 1612.78 583.529 1600.817 514.071 Z " fill-rule="evenodd" fill="rgb(178,139,103)"/><path d=" M 1494.033 356.4 L 1478.485 353.733 C 1420.796 403.568 1397.101 499.307 1326.389 550.024 L 1343.408 571.121 C 1466.082 555.932 1496.487 439.153 1494.033 356.4 Z " fill-rule="evenodd" fill="rgb(183,2,98)"/><path d=" M 1561.812 551.795 C 1499.469 551.795 1453.611 551.795 1424.237 551.795 C 1417.951 551.795 1419.136 542.718 1420.044 538.137 C 1430.532 485.273 1471.474 428.287 1471.474 353.035 L 1511.157 346.812 C 1543.98 399.602 1555.331 464.596 1561.812 551.795 Z " fill-rule="evenodd" fill="rgb(221,227,233)"/><path d=" M 1560.707 398.702 C 1566.47 397.045 1571.034 393.181 1574.399 387.11 C 1588.903 360.938 1583.665 346.529 1568.165 341.793 C 1552.664 337.056 1538.841 346.812 1514.145 346.812 C 1512.802 346.812 1511.571 346.897 1510.454 347.065 L 1498.031 347.774 C 1462.389 468.571 1452.559 549.165 1468.541 589.555 L 1576.823 589.555 C 1583.239 604.515 1589.378 617.102 1595.241 627.315 L 1624.746 627.315 C 1627.523 537.531 1606.176 461.327 1560.707 398.702 Z " fill-rule="evenodd" fill="rgb(229,0,121)"/><path d=" M 1553.244 527.517 C 1549.839 556.01 1544.304 576.69 1536.639 589.555 L 1576.823 589.555 C 1569.34 572.105 1561.48 551.425 1553.244 527.517 L 1553.244 527.517 Z " fill-rule="evenodd" fill="rgb(0,0,0)" fill-opacity="0.1"/></g></g></g></g></g></svg>